%
T01C0.031750
X9863Y24500
X9863Y23500
X10125Y18937
X9125Y18937
X11500Y16437
X11500Y15437
X11729Y11103
X11021Y10396
X16771Y16291
X17479Y15584
X19291Y12978
X18584Y12271
X20250Y18562
X19250Y18562
X17988Y22437
X16988Y22437
X14091Y23771
X13384Y24478
X17800Y26562
X17800Y25562
X17891Y24388
X19488Y24000
X16200Y13087
X16125Y14125
X15750Y14875
X14488Y14312
X13988Y13812
X14488Y13312
X13488Y13312
X13488Y14312
X12313Y13937
X11875Y13562
X11875Y13000
X12250Y12312
X13750Y11812
X15000Y11937
X14875Y9875
X37663Y24500
X37663Y23500
X37925Y18937
X36925Y18937
X39300Y16437
X39300Y15437
X39529Y11103
X38821Y10396
X44571Y16291
X45279Y15584
X47091Y12978
X46384Y12271
X48050Y18562
X47050Y18562
X45788Y22437
X44788Y22437
X41891Y23771
X41184Y24478
X45600Y26562
X45600Y25562
X45691Y24388
X47288Y24000
X44000Y13087
X43925Y14125
X43550Y14875
X42288Y14312
X41788Y13812
X42288Y13312
X41288Y13312
X41288Y14312
X40113Y13937
X39675Y13562
X39675Y13000
X40050Y12312
X41550Y11812
X42800Y11937
X42675Y9875
X9863Y58935
X9863Y57935
X10125Y53372
X9125Y53372
X11500Y50872
X11500Y49872
X11729Y45538
X11021Y44831
X16771Y50726
X17479Y50019
X19291Y47413
X18584Y46706
X20250Y52997
X19250Y52997
X17988Y56872
X16988Y56872
X14091Y58206
X13384Y58913
X17800Y60997
X17800Y59997
X17891Y58823
X19488Y58435
X16200Y47522
X16125Y48560
X15750Y49310
X14488Y48747
X13988Y48247
X14488Y47747
X13488Y47747
X13488Y48747
X12313Y48372
X11875Y47997
X11875Y47435
X12250Y46747
X13750Y46247
X15000Y46372
X14875Y44310
X37663Y58935
X37663Y57935
X37925Y53372
X36925Y53372
X39300Y50872
X39300Y49872
X39529Y45538
X38821Y44831
X44571Y50726
X45279Y50019
X47091Y47413
X46384Y46706
X48050Y52997
X47050Y52997
X45788Y56872
X44788Y56872
X41891Y58206
X41184Y58913
X45600Y60997
X45600Y59997
X45691Y58823
X47288Y58435
X44000Y47522
X43925Y48560
X43550Y49310
X42288Y48747
X41788Y48247
X42288Y47747
X41288Y47747
X41288Y48747
X40113Y48372
X39675Y47997
X39675Y47435
X40050Y46747
X41550Y46247
X42800Y46372
X42675Y44310
T02C0.040000
X11550Y24562
X12488Y25375
X12363Y22250
X11238Y22250
X10113Y22250
X12625Y19387
X13625Y19387
X14625Y19387
X15625Y19387
X16625Y19387
X17771Y19084
X18479Y19791
X19175Y21562
X20175Y21562
X20675Y22812
X20425Y27062
X17125Y13312
X17125Y14312
X17125Y17937
X16125Y17937
X15125Y17937
X14125Y17937
X13125Y17937
X12125Y17937
X13613Y21375
X18800Y27187
X13750Y9625
X12750Y9625
X39350Y24562
X40288Y25375
X40163Y22250
X39038Y22250
X37913Y22250
X40425Y19387
X41425Y19387
X42425Y19387
X43425Y19387
X44425Y19387
X45571Y19084
X46279Y19791
X46975Y21562
X47975Y21562
X48475Y22812
X48225Y27062
X44925Y13312
X44925Y14312
X44925Y17937
X43925Y17937
X42925Y17937
X41925Y17937
X40925Y17937
X39925Y17937
X41413Y21375
X46600Y27187
X41550Y9625
X40550Y9625
X11550Y58997
X12488Y59810
X12363Y56685
X11238Y56685
X10113Y56685
X12625Y53822
X13625Y53822
X14625Y53822
X15625Y53822
X16625Y53822
X17771Y53519
X18479Y54226
X19175Y55997
X20175Y55997
X20675Y57247
X20425Y61497
X17125Y47747
X17125Y48747
X17125Y52372
X16125Y52372
X15125Y52372
X14125Y52372
X13125Y52372
X12125Y52372
X13613Y55810
X18800Y61622
X13750Y44060
X12750Y44060
X39350Y58997
X40288Y59810
X40163Y56685
X39038Y56685
X37913Y56685
X40425Y53822
X41425Y53822
X42425Y53822
X43425Y53822
X44425Y53822
X45571Y53519
X46279Y54226
X46975Y55997
X47975Y55997
X48475Y57247
X48225Y61497
X44925Y47747
X44925Y48747
X44925Y52372
X43925Y52372
X42925Y52372
X41925Y52372
X40925Y52372
X39925Y52372
X41413Y55810
X46600Y61622
X41550Y44060
X40550Y44060
T03C0.130000
X10800Y25750
X15925Y27000
X15925Y21500
X19738Y10125
X9613Y9625
X38600Y25750
X43725Y27000
X43725Y21500
X47538Y10125
X37413Y9625
X10800Y60185
X15925Y61435
X15925Y55935
X19738Y44560
X9613Y44060
X38600Y60185
X43725Y61435
X43725Y55935
X47538Y44560
X37413Y44060
M30
