G75*
%MOIN*%
%OFA0B0*%
%FSLAX24Y24*%
%IPPOS*%
%LPD*%
%AMOC8*
5,1,8,0,0,1.08239X$1,22.5*
%
%ADD10C,0.0125*%
%ADD11C,0.0060*%
%ADD12C,0.0050*%
%ADD13C,0.0000*%
%ADD14C,0.0080*%
D10*
X000653Y001298D02*
X000653Y014098D01*
X020088Y014098D01*
X020088Y001298D01*
X000653Y001298D01*
D11*
X004636Y002812D02*
X004849Y003024D01*
X004849Y002812D02*
X004636Y003024D01*
X003778Y003660D02*
X003780Y003723D01*
X003786Y003785D01*
X003796Y003847D01*
X003809Y003909D01*
X003827Y003969D01*
X003848Y004028D01*
X003873Y004086D01*
X003902Y004142D01*
X003934Y004196D01*
X003969Y004248D01*
X004007Y004297D01*
X004049Y004345D01*
X004093Y004389D01*
X004141Y004431D01*
X004190Y004469D01*
X004242Y004504D01*
X004296Y004536D01*
X004352Y004565D01*
X004410Y004590D01*
X004469Y004611D01*
X004529Y004629D01*
X004591Y004642D01*
X004653Y004652D01*
X004715Y004658D01*
X004778Y004660D01*
X004841Y004658D01*
X004903Y004652D01*
X004965Y004642D01*
X005027Y004629D01*
X005087Y004611D01*
X005146Y004590D01*
X005204Y004565D01*
X005260Y004536D01*
X005314Y004504D01*
X005366Y004469D01*
X005415Y004431D01*
X005463Y004389D01*
X005507Y004345D01*
X005549Y004297D01*
X005587Y004248D01*
X005622Y004196D01*
X005654Y004142D01*
X005683Y004086D01*
X005708Y004028D01*
X005729Y003969D01*
X005747Y003909D01*
X005760Y003847D01*
X005770Y003785D01*
X005776Y003723D01*
X005778Y003660D01*
X005776Y003597D01*
X005770Y003535D01*
X005760Y003473D01*
X005747Y003411D01*
X005729Y003351D01*
X005708Y003292D01*
X005683Y003234D01*
X005654Y003178D01*
X005622Y003124D01*
X005587Y003072D01*
X005549Y003023D01*
X005507Y002975D01*
X005463Y002931D01*
X005415Y002889D01*
X005366Y002851D01*
X005314Y002816D01*
X005260Y002784D01*
X005204Y002755D01*
X005146Y002730D01*
X005087Y002709D01*
X005027Y002691D01*
X004965Y002678D01*
X004903Y002668D01*
X004841Y002662D01*
X004778Y002660D01*
X004715Y002662D01*
X004653Y002668D01*
X004591Y002678D01*
X004529Y002691D01*
X004469Y002709D01*
X004410Y002730D01*
X004352Y002755D01*
X004296Y002784D01*
X004242Y002816D01*
X004190Y002851D01*
X004141Y002889D01*
X004093Y002931D01*
X004049Y002975D01*
X004007Y003023D01*
X003969Y003072D01*
X003934Y003124D01*
X003902Y003178D01*
X003873Y003234D01*
X003848Y003292D01*
X003827Y003351D01*
X003809Y003411D01*
X003796Y003473D01*
X003786Y003535D01*
X003780Y003597D01*
X003778Y003660D01*
X005215Y004973D02*
X004965Y005223D01*
X004965Y005723D01*
X005215Y005973D01*
X005715Y005973D01*
X005965Y005723D01*
X006215Y005973D01*
X006715Y005973D01*
X006965Y005723D01*
X006965Y005223D01*
X006715Y004973D01*
X006215Y004973D01*
X005965Y005223D01*
X005715Y004973D01*
X005215Y004973D01*
X005965Y005223D02*
X005965Y005723D01*
X007242Y005614D02*
X007454Y005402D01*
X007454Y005614D02*
X007242Y005402D01*
X007090Y005473D02*
X007092Y005536D01*
X007098Y005598D01*
X007108Y005660D01*
X007121Y005722D01*
X007139Y005782D01*
X007160Y005841D01*
X007185Y005899D01*
X007214Y005955D01*
X007246Y006009D01*
X007281Y006061D01*
X007319Y006110D01*
X007361Y006158D01*
X007405Y006202D01*
X007453Y006244D01*
X007502Y006282D01*
X007554Y006317D01*
X007608Y006349D01*
X007664Y006378D01*
X007722Y006403D01*
X007781Y006424D01*
X007841Y006442D01*
X007903Y006455D01*
X007965Y006465D01*
X008027Y006471D01*
X008090Y006473D01*
X008153Y006471D01*
X008215Y006465D01*
X008277Y006455D01*
X008339Y006442D01*
X008399Y006424D01*
X008458Y006403D01*
X008516Y006378D01*
X008572Y006349D01*
X008626Y006317D01*
X008678Y006282D01*
X008727Y006244D01*
X008775Y006202D01*
X008819Y006158D01*
X008861Y006110D01*
X008899Y006061D01*
X008934Y006009D01*
X008966Y005955D01*
X008995Y005899D01*
X009020Y005841D01*
X009041Y005782D01*
X009059Y005722D01*
X009072Y005660D01*
X009082Y005598D01*
X009088Y005536D01*
X009090Y005473D01*
X009088Y005410D01*
X009082Y005348D01*
X009072Y005286D01*
X009059Y005224D01*
X009041Y005164D01*
X009020Y005105D01*
X008995Y005047D01*
X008966Y004991D01*
X008934Y004937D01*
X008899Y004885D01*
X008861Y004836D01*
X008819Y004788D01*
X008775Y004744D01*
X008727Y004702D01*
X008678Y004664D01*
X008626Y004629D01*
X008572Y004597D01*
X008516Y004568D01*
X008458Y004543D01*
X008399Y004522D01*
X008339Y004504D01*
X008277Y004491D01*
X008215Y004481D01*
X008153Y004475D01*
X008090Y004473D01*
X008027Y004475D01*
X007965Y004481D01*
X007903Y004491D01*
X007841Y004504D01*
X007781Y004522D01*
X007722Y004543D01*
X007664Y004568D01*
X007608Y004597D01*
X007554Y004629D01*
X007502Y004664D01*
X007453Y004702D01*
X007405Y004744D01*
X007361Y004788D01*
X007319Y004836D01*
X007281Y004885D01*
X007246Y004937D01*
X007214Y004991D01*
X007185Y005047D01*
X007160Y005105D01*
X007139Y005164D01*
X007121Y005224D01*
X007108Y005286D01*
X007098Y005348D01*
X007092Y005410D01*
X007090Y005473D01*
X009590Y005223D02*
X009590Y005723D01*
X009840Y005973D01*
X009590Y006223D01*
X009590Y006723D01*
X009840Y006973D01*
X009590Y007223D01*
X009590Y007723D01*
X009840Y007973D01*
X009590Y008223D01*
X009590Y008723D01*
X009840Y008973D01*
X009590Y009223D01*
X009590Y009723D01*
X009840Y009973D01*
X009590Y010223D01*
X009590Y010723D01*
X009840Y010973D01*
X010340Y010973D01*
X010590Y010723D01*
X010590Y010223D01*
X010340Y009973D01*
X010590Y009723D01*
X010590Y009223D01*
X010340Y008973D01*
X009840Y008973D01*
X010340Y008973D02*
X010590Y008723D01*
X010590Y008223D01*
X010340Y007973D01*
X010590Y007723D01*
X010590Y007223D01*
X010340Y006973D01*
X010590Y006723D01*
X010590Y006223D01*
X010340Y005973D01*
X010590Y005723D01*
X010590Y005223D01*
X010340Y004973D01*
X009840Y004973D01*
X009590Y005223D01*
X009840Y005973D02*
X010340Y005973D01*
X011040Y005723D02*
X011040Y006223D01*
X011290Y006473D01*
X011040Y006723D01*
X011040Y007223D01*
X011290Y007473D01*
X011040Y007723D01*
X011040Y008223D01*
X011290Y008473D01*
X011040Y008723D01*
X011040Y009223D01*
X011290Y009473D01*
X011040Y009723D01*
X011040Y010223D01*
X011290Y010473D01*
X011790Y010473D01*
X012040Y010223D01*
X012040Y009723D01*
X011790Y009473D01*
X012040Y009223D01*
X012040Y008723D01*
X011790Y008473D01*
X011290Y008473D01*
X011790Y008473D02*
X012040Y008223D01*
X012040Y007723D01*
X011790Y007473D01*
X012040Y007223D01*
X012040Y006723D01*
X011790Y006473D01*
X012040Y006223D01*
X012040Y005723D01*
X011790Y005473D01*
X011290Y005473D01*
X011040Y005723D01*
X011060Y005357D02*
X011414Y005357D01*
X011767Y005003D01*
X011767Y004650D01*
X012121Y004650D01*
X012474Y004296D01*
X012474Y003943D01*
X012121Y003589D01*
X011767Y003589D01*
X011414Y003943D01*
X011414Y004296D01*
X011060Y004296D01*
X010707Y004650D01*
X010707Y005003D01*
X011060Y005357D01*
X011767Y004650D02*
X011414Y004296D01*
X013215Y003673D02*
X013215Y003173D01*
X013465Y002923D01*
X013965Y002923D01*
X014215Y003173D01*
X014215Y003673D01*
X013965Y003923D01*
X013465Y003923D01*
X013215Y003673D01*
X013465Y002923D02*
X013215Y002673D01*
X013215Y002173D01*
X013465Y001923D01*
X013965Y001923D01*
X014215Y002173D01*
X014215Y002673D01*
X013965Y002923D01*
X014715Y002423D02*
X014465Y002173D01*
X014465Y001673D01*
X014715Y001423D01*
X015215Y001423D01*
X015465Y001673D01*
X015465Y002173D01*
X015215Y002423D01*
X014715Y002423D01*
X018715Y002423D02*
X018715Y001923D01*
X018965Y001673D01*
X019465Y001673D01*
X019715Y001923D01*
X019715Y002423D01*
X019465Y002673D01*
X018965Y002673D01*
X018715Y002423D01*
X019090Y003298D02*
X019590Y003298D01*
X019840Y003548D01*
X019840Y004048D01*
X019590Y004298D01*
X019090Y004298D01*
X018840Y004048D01*
X018840Y003548D01*
X019090Y003298D01*
X013778Y008485D02*
X013278Y008485D01*
X013028Y008735D01*
X013028Y009235D01*
X013278Y009485D01*
X013778Y009485D01*
X014028Y009235D01*
X014028Y008735D01*
X013778Y008485D01*
X014153Y009735D02*
X014653Y009735D01*
X014903Y009985D01*
X014903Y010485D01*
X014653Y010735D01*
X014153Y010735D01*
X013903Y010485D01*
X013903Y009985D01*
X014153Y009735D01*
X014153Y010860D02*
X014653Y010860D01*
X014903Y011110D01*
X014903Y011610D01*
X014653Y011860D01*
X014153Y011860D01*
X013903Y011610D01*
X013903Y011110D01*
X014153Y010860D01*
X014153Y011985D02*
X014653Y011985D01*
X014903Y012235D01*
X014903Y012735D01*
X014653Y012985D01*
X014153Y012985D01*
X013903Y012735D01*
X013903Y012235D01*
X014153Y011985D01*
X015503Y013085D02*
X015503Y013235D01*
X015503Y013385D01*
X015503Y013235D02*
X015353Y013235D01*
X015503Y013235D02*
X015653Y013235D01*
X015053Y012735D02*
X015055Y012801D01*
X015061Y012866D01*
X015071Y012931D01*
X015084Y012996D01*
X015102Y013059D01*
X015123Y013122D01*
X015148Y013182D01*
X015177Y013242D01*
X015209Y013299D01*
X015244Y013355D01*
X015283Y013408D01*
X015325Y013459D01*
X015369Y013507D01*
X015417Y013552D01*
X015467Y013595D01*
X015520Y013634D01*
X015575Y013671D01*
X015632Y013704D01*
X015691Y013733D01*
X015751Y013759D01*
X015813Y013781D01*
X015876Y013800D01*
X015940Y013814D01*
X016005Y013825D01*
X016071Y013832D01*
X016137Y013835D01*
X016202Y013834D01*
X016268Y013829D01*
X016333Y013820D01*
X016398Y013807D01*
X016461Y013791D01*
X016524Y013771D01*
X016585Y013746D01*
X016645Y013719D01*
X016703Y013688D01*
X016759Y013653D01*
X016813Y013615D01*
X016864Y013574D01*
X016913Y013530D01*
X016959Y013483D01*
X017003Y013434D01*
X017043Y013382D01*
X017080Y013327D01*
X017114Y013271D01*
X017144Y013212D01*
X017171Y013152D01*
X017194Y013091D01*
X017213Y013028D01*
X017229Y012964D01*
X017241Y012899D01*
X017249Y012834D01*
X017253Y012768D01*
X017253Y012702D01*
X017249Y012636D01*
X017241Y012571D01*
X017229Y012506D01*
X017213Y012442D01*
X017194Y012379D01*
X017171Y012318D01*
X017144Y012258D01*
X017114Y012199D01*
X017080Y012143D01*
X017043Y012088D01*
X017003Y012036D01*
X016959Y011987D01*
X016913Y011940D01*
X016864Y011896D01*
X016813Y011855D01*
X016759Y011817D01*
X016703Y011782D01*
X016645Y011751D01*
X016585Y011724D01*
X016524Y011699D01*
X016461Y011679D01*
X016398Y011663D01*
X016333Y011650D01*
X016268Y011641D01*
X016202Y011636D01*
X016137Y011635D01*
X016071Y011638D01*
X016005Y011645D01*
X015940Y011656D01*
X015876Y011670D01*
X015813Y011689D01*
X015751Y011711D01*
X015691Y011737D01*
X015632Y011766D01*
X015575Y011799D01*
X015520Y011836D01*
X015467Y011875D01*
X015417Y011918D01*
X015369Y011963D01*
X015325Y012011D01*
X015283Y012062D01*
X015244Y012115D01*
X015209Y012171D01*
X015177Y012228D01*
X015148Y012288D01*
X015123Y012348D01*
X015102Y012411D01*
X015084Y012474D01*
X015071Y012539D01*
X015061Y012604D01*
X015055Y012669D01*
X015053Y012735D01*
X016465Y011548D02*
X016215Y011298D01*
X016215Y010798D01*
X016465Y010548D01*
X016965Y010548D01*
X017215Y010798D01*
X017215Y011298D01*
X016965Y011548D01*
X016465Y011548D01*
X017278Y010610D02*
X017028Y010360D01*
X017028Y009860D01*
X017278Y009610D01*
X017778Y009610D01*
X018028Y009860D01*
X018028Y010360D01*
X017778Y010610D01*
X017278Y010610D01*
X017197Y009073D02*
X017091Y008967D01*
X017197Y008860D01*
X017091Y008967D02*
X016985Y008860D01*
X017091Y008967D02*
X016985Y009073D01*
X015178Y008860D02*
X015180Y008926D01*
X015186Y008991D01*
X015196Y009056D01*
X015209Y009121D01*
X015227Y009184D01*
X015248Y009247D01*
X015273Y009307D01*
X015302Y009367D01*
X015334Y009424D01*
X015369Y009480D01*
X015408Y009533D01*
X015450Y009584D01*
X015494Y009632D01*
X015542Y009677D01*
X015592Y009720D01*
X015645Y009759D01*
X015700Y009796D01*
X015757Y009829D01*
X015816Y009858D01*
X015876Y009884D01*
X015938Y009906D01*
X016001Y009925D01*
X016065Y009939D01*
X016130Y009950D01*
X016196Y009957D01*
X016262Y009960D01*
X016327Y009959D01*
X016393Y009954D01*
X016458Y009945D01*
X016523Y009932D01*
X016586Y009916D01*
X016649Y009896D01*
X016710Y009871D01*
X016770Y009844D01*
X016828Y009813D01*
X016884Y009778D01*
X016938Y009740D01*
X016989Y009699D01*
X017038Y009655D01*
X017084Y009608D01*
X017128Y009559D01*
X017168Y009507D01*
X017205Y009452D01*
X017239Y009396D01*
X017269Y009337D01*
X017296Y009277D01*
X017319Y009216D01*
X017338Y009153D01*
X017354Y009089D01*
X017366Y009024D01*
X017374Y008959D01*
X017378Y008893D01*
X017378Y008827D01*
X017374Y008761D01*
X017366Y008696D01*
X017354Y008631D01*
X017338Y008567D01*
X017319Y008504D01*
X017296Y008443D01*
X017269Y008383D01*
X017239Y008324D01*
X017205Y008268D01*
X017168Y008213D01*
X017128Y008161D01*
X017084Y008112D01*
X017038Y008065D01*
X016989Y008021D01*
X016938Y007980D01*
X016884Y007942D01*
X016828Y007907D01*
X016770Y007876D01*
X016710Y007849D01*
X016649Y007824D01*
X016586Y007804D01*
X016523Y007788D01*
X016458Y007775D01*
X016393Y007766D01*
X016327Y007761D01*
X016262Y007760D01*
X016196Y007763D01*
X016130Y007770D01*
X016065Y007781D01*
X016001Y007795D01*
X015938Y007814D01*
X015876Y007836D01*
X015816Y007862D01*
X015757Y007891D01*
X015700Y007924D01*
X015645Y007961D01*
X015592Y008000D01*
X015542Y008043D01*
X015494Y008088D01*
X015450Y008136D01*
X015408Y008187D01*
X015369Y008240D01*
X015334Y008296D01*
X015302Y008353D01*
X015273Y008413D01*
X015248Y008473D01*
X015227Y008536D01*
X015209Y008599D01*
X015196Y008664D01*
X015186Y008729D01*
X015180Y008794D01*
X015178Y008860D01*
X011790Y009473D02*
X011290Y009473D01*
X010340Y009973D02*
X009840Y009973D01*
X008740Y010548D02*
X008440Y010548D01*
X008590Y010698D02*
X008590Y010398D01*
X007090Y011098D02*
X007092Y011161D01*
X007098Y011223D01*
X007108Y011285D01*
X007121Y011347D01*
X007139Y011407D01*
X007160Y011466D01*
X007185Y011524D01*
X007214Y011580D01*
X007246Y011634D01*
X007281Y011686D01*
X007319Y011735D01*
X007361Y011783D01*
X007405Y011827D01*
X007453Y011869D01*
X007502Y011907D01*
X007554Y011942D01*
X007608Y011974D01*
X007664Y012003D01*
X007722Y012028D01*
X007781Y012049D01*
X007841Y012067D01*
X007903Y012080D01*
X007965Y012090D01*
X008027Y012096D01*
X008090Y012098D01*
X008153Y012096D01*
X008215Y012090D01*
X008277Y012080D01*
X008339Y012067D01*
X008399Y012049D01*
X008458Y012028D01*
X008516Y012003D01*
X008572Y011974D01*
X008626Y011942D01*
X008678Y011907D01*
X008727Y011869D01*
X008775Y011827D01*
X008819Y011783D01*
X008861Y011735D01*
X008899Y011686D01*
X008934Y011634D01*
X008966Y011580D01*
X008995Y011524D01*
X009020Y011466D01*
X009041Y011407D01*
X009059Y011347D01*
X009072Y011285D01*
X009082Y011223D01*
X009088Y011161D01*
X009090Y011098D01*
X009088Y011035D01*
X009082Y010973D01*
X009072Y010911D01*
X009059Y010849D01*
X009041Y010789D01*
X009020Y010730D01*
X008995Y010672D01*
X008966Y010616D01*
X008934Y010562D01*
X008899Y010510D01*
X008861Y010461D01*
X008819Y010413D01*
X008775Y010369D01*
X008727Y010327D01*
X008678Y010289D01*
X008626Y010254D01*
X008572Y010222D01*
X008516Y010193D01*
X008458Y010168D01*
X008399Y010147D01*
X008339Y010129D01*
X008277Y010116D01*
X008215Y010106D01*
X008153Y010100D01*
X008090Y010098D01*
X008027Y010100D01*
X007965Y010106D01*
X007903Y010116D01*
X007841Y010129D01*
X007781Y010147D01*
X007722Y010168D01*
X007664Y010193D01*
X007608Y010222D01*
X007554Y010254D01*
X007502Y010289D01*
X007453Y010327D01*
X007405Y010369D01*
X007361Y010413D01*
X007319Y010461D01*
X007281Y010510D01*
X007246Y010562D01*
X007214Y010616D01*
X007185Y010672D01*
X007160Y010730D01*
X007139Y010789D01*
X007121Y010849D01*
X007108Y010911D01*
X007098Y010973D01*
X007092Y011035D01*
X007090Y011098D01*
X010390Y012473D02*
X010690Y012473D01*
X010540Y012623D02*
X010540Y012323D01*
X010090Y012973D02*
X010092Y013036D01*
X010098Y013098D01*
X010108Y013160D01*
X010121Y013222D01*
X010139Y013282D01*
X010160Y013341D01*
X010185Y013399D01*
X010214Y013455D01*
X010246Y013509D01*
X010281Y013561D01*
X010319Y013610D01*
X010361Y013658D01*
X010405Y013702D01*
X010453Y013744D01*
X010502Y013782D01*
X010554Y013817D01*
X010608Y013849D01*
X010664Y013878D01*
X010722Y013903D01*
X010781Y013924D01*
X010841Y013942D01*
X010903Y013955D01*
X010965Y013965D01*
X011027Y013971D01*
X011090Y013973D01*
X011153Y013971D01*
X011215Y013965D01*
X011277Y013955D01*
X011339Y013942D01*
X011399Y013924D01*
X011458Y013903D01*
X011516Y013878D01*
X011572Y013849D01*
X011626Y013817D01*
X011678Y013782D01*
X011727Y013744D01*
X011775Y013702D01*
X011819Y013658D01*
X011861Y013610D01*
X011899Y013561D01*
X011934Y013509D01*
X011966Y013455D01*
X011995Y013399D01*
X012020Y013341D01*
X012041Y013282D01*
X012059Y013222D01*
X012072Y013160D01*
X012082Y013098D01*
X012088Y013036D01*
X012090Y012973D01*
X012088Y012910D01*
X012082Y012848D01*
X012072Y012786D01*
X012059Y012724D01*
X012041Y012664D01*
X012020Y012605D01*
X011995Y012547D01*
X011966Y012491D01*
X011934Y012437D01*
X011899Y012385D01*
X011861Y012336D01*
X011819Y012288D01*
X011775Y012244D01*
X011727Y012202D01*
X011678Y012164D01*
X011626Y012129D01*
X011572Y012097D01*
X011516Y012068D01*
X011458Y012043D01*
X011399Y012022D01*
X011339Y012004D01*
X011277Y011991D01*
X011215Y011981D01*
X011153Y011975D01*
X011090Y011973D01*
X011027Y011975D01*
X010965Y011981D01*
X010903Y011991D01*
X010841Y012004D01*
X010781Y012022D01*
X010722Y012043D01*
X010664Y012068D01*
X010608Y012097D01*
X010554Y012129D01*
X010502Y012164D01*
X010453Y012202D01*
X010405Y012244D01*
X010361Y012288D01*
X010319Y012336D01*
X010281Y012385D01*
X010246Y012437D01*
X010214Y012491D01*
X010185Y012547D01*
X010160Y012605D01*
X010139Y012664D01*
X010121Y012724D01*
X010108Y012786D01*
X010098Y012848D01*
X010092Y012910D01*
X010090Y012973D01*
X010340Y007973D02*
X009840Y007973D01*
X009840Y006973D02*
X010340Y006973D01*
X011290Y007473D02*
X011790Y007473D01*
X011790Y006473D02*
X011290Y006473D01*
X009715Y002848D02*
X009717Y002911D01*
X009723Y002973D01*
X009733Y003035D01*
X009746Y003097D01*
X009764Y003157D01*
X009785Y003216D01*
X009810Y003274D01*
X009839Y003330D01*
X009871Y003384D01*
X009906Y003436D01*
X009944Y003485D01*
X009986Y003533D01*
X010030Y003577D01*
X010078Y003619D01*
X010127Y003657D01*
X010179Y003692D01*
X010233Y003724D01*
X010289Y003753D01*
X010347Y003778D01*
X010406Y003799D01*
X010466Y003817D01*
X010528Y003830D01*
X010590Y003840D01*
X010652Y003846D01*
X010715Y003848D01*
X010778Y003846D01*
X010840Y003840D01*
X010902Y003830D01*
X010964Y003817D01*
X011024Y003799D01*
X011083Y003778D01*
X011141Y003753D01*
X011197Y003724D01*
X011251Y003692D01*
X011303Y003657D01*
X011352Y003619D01*
X011400Y003577D01*
X011444Y003533D01*
X011486Y003485D01*
X011524Y003436D01*
X011559Y003384D01*
X011591Y003330D01*
X011620Y003274D01*
X011645Y003216D01*
X011666Y003157D01*
X011684Y003097D01*
X011697Y003035D01*
X011707Y002973D01*
X011713Y002911D01*
X011715Y002848D01*
X011713Y002785D01*
X011707Y002723D01*
X011697Y002661D01*
X011684Y002599D01*
X011666Y002539D01*
X011645Y002480D01*
X011620Y002422D01*
X011591Y002366D01*
X011559Y002312D01*
X011524Y002260D01*
X011486Y002211D01*
X011444Y002163D01*
X011400Y002119D01*
X011352Y002077D01*
X011303Y002039D01*
X011251Y002004D01*
X011197Y001972D01*
X011141Y001943D01*
X011083Y001918D01*
X011024Y001897D01*
X010964Y001879D01*
X010902Y001866D01*
X010840Y001856D01*
X010778Y001850D01*
X010715Y001848D01*
X010652Y001850D01*
X010590Y001856D01*
X010528Y001866D01*
X010466Y001879D01*
X010406Y001897D01*
X010347Y001918D01*
X010289Y001943D01*
X010233Y001972D01*
X010179Y002004D01*
X010127Y002039D01*
X010078Y002077D01*
X010030Y002119D01*
X009986Y002163D01*
X009944Y002211D01*
X009906Y002260D01*
X009871Y002312D01*
X009839Y002366D01*
X009810Y002422D01*
X009785Y002480D01*
X009764Y002539D01*
X009746Y002599D01*
X009733Y002661D01*
X009723Y002723D01*
X009717Y002785D01*
X009715Y002848D01*
X010165Y002498D02*
X010165Y002198D01*
X010315Y002348D02*
X010015Y002348D01*
X002278Y008598D02*
X002028Y008348D01*
X001528Y008348D01*
X001278Y008598D01*
X001278Y009098D01*
X001528Y009348D01*
X001278Y009598D01*
X001278Y010098D01*
X001528Y010348D01*
X002028Y010348D01*
X002278Y010098D01*
X002278Y009598D01*
X002028Y009348D01*
X002278Y009098D01*
X002278Y008598D01*
X002028Y009348D02*
X001528Y009348D01*
X002761Y010374D02*
X002974Y010587D01*
X002761Y010587D02*
X002974Y010374D01*
X001903Y011223D02*
X001905Y011286D01*
X001911Y011348D01*
X001921Y011410D01*
X001934Y011472D01*
X001952Y011532D01*
X001973Y011591D01*
X001998Y011649D01*
X002027Y011705D01*
X002059Y011759D01*
X002094Y011811D01*
X002132Y011860D01*
X002174Y011908D01*
X002218Y011952D01*
X002266Y011994D01*
X002315Y012032D01*
X002367Y012067D01*
X002421Y012099D01*
X002477Y012128D01*
X002535Y012153D01*
X002594Y012174D01*
X002654Y012192D01*
X002716Y012205D01*
X002778Y012215D01*
X002840Y012221D01*
X002903Y012223D01*
X002966Y012221D01*
X003028Y012215D01*
X003090Y012205D01*
X003152Y012192D01*
X003212Y012174D01*
X003271Y012153D01*
X003329Y012128D01*
X003385Y012099D01*
X003439Y012067D01*
X003491Y012032D01*
X003540Y011994D01*
X003588Y011952D01*
X003632Y011908D01*
X003674Y011860D01*
X003712Y011811D01*
X003747Y011759D01*
X003779Y011705D01*
X003808Y011649D01*
X003833Y011591D01*
X003854Y011532D01*
X003872Y011472D01*
X003885Y011410D01*
X003895Y011348D01*
X003901Y011286D01*
X003903Y011223D01*
X003901Y011160D01*
X003895Y011098D01*
X003885Y011036D01*
X003872Y010974D01*
X003854Y010914D01*
X003833Y010855D01*
X003808Y010797D01*
X003779Y010741D01*
X003747Y010687D01*
X003712Y010635D01*
X003674Y010586D01*
X003632Y010538D01*
X003588Y010494D01*
X003540Y010452D01*
X003491Y010414D01*
X003439Y010379D01*
X003385Y010347D01*
X003329Y010318D01*
X003271Y010293D01*
X003212Y010272D01*
X003152Y010254D01*
X003090Y010241D01*
X003028Y010231D01*
X002966Y010225D01*
X002903Y010223D01*
X002840Y010225D01*
X002778Y010231D01*
X002716Y010241D01*
X002654Y010254D01*
X002594Y010272D01*
X002535Y010293D01*
X002477Y010318D01*
X002421Y010347D01*
X002367Y010379D01*
X002315Y010414D01*
X002266Y010452D01*
X002218Y010494D01*
X002174Y010538D01*
X002132Y010586D01*
X002094Y010635D01*
X002059Y010687D01*
X002027Y010741D01*
X001998Y010797D01*
X001973Y010855D01*
X001952Y010914D01*
X001934Y010974D01*
X001921Y011036D01*
X001911Y011098D01*
X001905Y011160D01*
X001903Y011223D01*
D12*
X003048Y011764D02*
X003289Y012004D01*
X003369Y011924D02*
X003208Y012085D01*
X003462Y011831D02*
X003623Y011670D01*
X003543Y011750D02*
X003302Y011510D01*
X007697Y011923D02*
X007924Y011923D01*
X007811Y011923D02*
X007811Y011583D01*
X008170Y011583D02*
X008170Y011923D01*
X008283Y011923D02*
X008056Y011923D01*
X011575Y012698D02*
X011575Y012925D01*
X011575Y012811D02*
X011915Y012811D01*
X011915Y013170D02*
X011575Y013170D01*
X011575Y013057D02*
X011575Y013284D01*
X016072Y007371D02*
X016859Y007371D01*
X017913Y006317D01*
X017913Y005529D01*
X016859Y004475D01*
X016072Y004475D01*
X015018Y005529D01*
X015018Y006317D01*
X016072Y007371D01*
X011540Y003045D02*
X011200Y003045D01*
X011200Y002932D02*
X011200Y003159D01*
X011200Y002800D02*
X011200Y002573D01*
X011200Y002686D02*
X011540Y002686D01*
X008560Y004775D02*
X008319Y005016D01*
X008239Y004936D02*
X008399Y005096D01*
X008493Y005190D02*
X008653Y005350D01*
X008573Y005270D02*
X008813Y005029D01*
X005498Y004108D02*
X005337Y004268D01*
X005418Y004188D02*
X005177Y003947D01*
X004923Y004201D02*
X005164Y004442D01*
X005083Y004522D02*
X005244Y004362D01*
D13*
X001628Y002860D02*
X001630Y002910D01*
X001636Y002960D01*
X001646Y003010D01*
X001659Y003058D01*
X001676Y003106D01*
X001697Y003152D01*
X001721Y003196D01*
X001749Y003238D01*
X001780Y003278D01*
X001814Y003315D01*
X001851Y003350D01*
X001890Y003381D01*
X001931Y003410D01*
X001975Y003435D01*
X002021Y003457D01*
X002068Y003475D01*
X002116Y003489D01*
X002165Y003500D01*
X002215Y003507D01*
X002265Y003510D01*
X002316Y003509D01*
X002366Y003504D01*
X002416Y003495D01*
X002464Y003483D01*
X002512Y003466D01*
X002558Y003446D01*
X002603Y003423D01*
X002646Y003396D01*
X002686Y003366D01*
X002724Y003333D01*
X002759Y003297D01*
X002792Y003258D01*
X002821Y003217D01*
X002847Y003174D01*
X002870Y003129D01*
X002889Y003082D01*
X002904Y003034D01*
X002916Y002985D01*
X002924Y002935D01*
X002928Y002885D01*
X002928Y002835D01*
X002924Y002785D01*
X002916Y002735D01*
X002904Y002686D01*
X002889Y002638D01*
X002870Y002591D01*
X002847Y002546D01*
X002821Y002503D01*
X002792Y002462D01*
X002759Y002423D01*
X002724Y002387D01*
X002686Y002354D01*
X002646Y002324D01*
X002603Y002297D01*
X002558Y002274D01*
X002512Y002254D01*
X002464Y002237D01*
X002416Y002225D01*
X002366Y002216D01*
X002316Y002211D01*
X002265Y002210D01*
X002215Y002213D01*
X002165Y002220D01*
X002116Y002231D01*
X002068Y002245D01*
X002021Y002263D01*
X001975Y002285D01*
X001931Y002310D01*
X001890Y002339D01*
X001851Y002370D01*
X001814Y002405D01*
X001780Y002442D01*
X001749Y002482D01*
X001721Y002524D01*
X001697Y002568D01*
X001676Y002614D01*
X001659Y002662D01*
X001646Y002710D01*
X001636Y002760D01*
X001630Y002810D01*
X001628Y002860D01*
X013003Y006673D02*
X013005Y006723D01*
X013011Y006773D01*
X013021Y006823D01*
X013034Y006871D01*
X013051Y006919D01*
X013072Y006965D01*
X013096Y007009D01*
X013124Y007051D01*
X013155Y007091D01*
X013189Y007128D01*
X013226Y007163D01*
X013265Y007194D01*
X013306Y007223D01*
X013350Y007248D01*
X013396Y007270D01*
X013443Y007288D01*
X013491Y007302D01*
X013540Y007313D01*
X013590Y007320D01*
X013640Y007323D01*
X013691Y007322D01*
X013741Y007317D01*
X013791Y007308D01*
X013839Y007296D01*
X013887Y007279D01*
X013933Y007259D01*
X013978Y007236D01*
X014021Y007209D01*
X014061Y007179D01*
X014099Y007146D01*
X014134Y007110D01*
X014167Y007071D01*
X014196Y007030D01*
X014222Y006987D01*
X014245Y006942D01*
X014264Y006895D01*
X014279Y006847D01*
X014291Y006798D01*
X014299Y006748D01*
X014303Y006698D01*
X014303Y006648D01*
X014299Y006598D01*
X014291Y006548D01*
X014279Y006499D01*
X014264Y006451D01*
X014245Y006404D01*
X014222Y006359D01*
X014196Y006316D01*
X014167Y006275D01*
X014134Y006236D01*
X014099Y006200D01*
X014061Y006167D01*
X014021Y006137D01*
X013978Y006110D01*
X013933Y006087D01*
X013887Y006067D01*
X013839Y006050D01*
X013791Y006038D01*
X013741Y006029D01*
X013691Y006024D01*
X013640Y006023D01*
X013590Y006026D01*
X013540Y006033D01*
X013491Y006044D01*
X013443Y006058D01*
X013396Y006076D01*
X013350Y006098D01*
X013306Y006123D01*
X013265Y006152D01*
X013226Y006183D01*
X013189Y006218D01*
X013155Y006255D01*
X013124Y006295D01*
X013096Y006337D01*
X013072Y006381D01*
X013051Y006427D01*
X013034Y006475D01*
X013021Y006523D01*
X013011Y006573D01*
X013005Y006623D01*
X013003Y006673D01*
X018503Y006673D02*
X018505Y006723D01*
X018511Y006773D01*
X018521Y006823D01*
X018534Y006871D01*
X018551Y006919D01*
X018572Y006965D01*
X018596Y007009D01*
X018624Y007051D01*
X018655Y007091D01*
X018689Y007128D01*
X018726Y007163D01*
X018765Y007194D01*
X018806Y007223D01*
X018850Y007248D01*
X018896Y007270D01*
X018943Y007288D01*
X018991Y007302D01*
X019040Y007313D01*
X019090Y007320D01*
X019140Y007323D01*
X019191Y007322D01*
X019241Y007317D01*
X019291Y007308D01*
X019339Y007296D01*
X019387Y007279D01*
X019433Y007259D01*
X019478Y007236D01*
X019521Y007209D01*
X019561Y007179D01*
X019599Y007146D01*
X019634Y007110D01*
X019667Y007071D01*
X019696Y007030D01*
X019722Y006987D01*
X019745Y006942D01*
X019764Y006895D01*
X019779Y006847D01*
X019791Y006798D01*
X019799Y006748D01*
X019803Y006698D01*
X019803Y006648D01*
X019799Y006598D01*
X019791Y006548D01*
X019779Y006499D01*
X019764Y006451D01*
X019745Y006404D01*
X019722Y006359D01*
X019696Y006316D01*
X019667Y006275D01*
X019634Y006236D01*
X019599Y006200D01*
X019561Y006167D01*
X019521Y006137D01*
X019478Y006110D01*
X019433Y006087D01*
X019387Y006067D01*
X019339Y006050D01*
X019291Y006038D01*
X019241Y006029D01*
X019191Y006024D01*
X019140Y006023D01*
X019090Y006026D01*
X019040Y006033D01*
X018991Y006044D01*
X018943Y006058D01*
X018896Y006076D01*
X018850Y006098D01*
X018806Y006123D01*
X018765Y006152D01*
X018726Y006183D01*
X018689Y006218D01*
X018655Y006255D01*
X018624Y006295D01*
X018596Y006337D01*
X018572Y006381D01*
X018551Y006427D01*
X018534Y006475D01*
X018521Y006523D01*
X018511Y006573D01*
X018505Y006623D01*
X018503Y006673D01*
X017253Y011798D02*
X017255Y011848D01*
X017261Y011898D01*
X017271Y011948D01*
X017284Y011996D01*
X017301Y012044D01*
X017322Y012090D01*
X017346Y012134D01*
X017374Y012176D01*
X017405Y012216D01*
X017439Y012253D01*
X017476Y012288D01*
X017515Y012319D01*
X017556Y012348D01*
X017600Y012373D01*
X017646Y012395D01*
X017693Y012413D01*
X017741Y012427D01*
X017790Y012438D01*
X017840Y012445D01*
X017890Y012448D01*
X017941Y012447D01*
X017991Y012442D01*
X018041Y012433D01*
X018089Y012421D01*
X018137Y012404D01*
X018183Y012384D01*
X018228Y012361D01*
X018271Y012334D01*
X018311Y012304D01*
X018349Y012271D01*
X018384Y012235D01*
X018417Y012196D01*
X018446Y012155D01*
X018472Y012112D01*
X018495Y012067D01*
X018514Y012020D01*
X018529Y011972D01*
X018541Y011923D01*
X018549Y011873D01*
X018553Y011823D01*
X018553Y011773D01*
X018549Y011723D01*
X018541Y011673D01*
X018529Y011624D01*
X018514Y011576D01*
X018495Y011529D01*
X018472Y011484D01*
X018446Y011441D01*
X018417Y011400D01*
X018384Y011361D01*
X018349Y011325D01*
X018311Y011292D01*
X018271Y011262D01*
X018228Y011235D01*
X018183Y011212D01*
X018137Y011192D01*
X018089Y011175D01*
X018041Y011163D01*
X017991Y011154D01*
X017941Y011149D01*
X017890Y011148D01*
X017840Y011151D01*
X017790Y011158D01*
X017741Y011169D01*
X017693Y011183D01*
X017646Y011201D01*
X017600Y011223D01*
X017556Y011248D01*
X017515Y011277D01*
X017476Y011308D01*
X017439Y011343D01*
X017405Y011380D01*
X017374Y011420D01*
X017346Y011462D01*
X017322Y011506D01*
X017301Y011552D01*
X017284Y011600D01*
X017271Y011648D01*
X017261Y011698D01*
X017255Y011748D01*
X017253Y011798D01*
X001128Y012985D02*
X001130Y013035D01*
X001136Y013085D01*
X001146Y013135D01*
X001159Y013183D01*
X001176Y013231D01*
X001197Y013277D01*
X001221Y013321D01*
X001249Y013363D01*
X001280Y013403D01*
X001314Y013440D01*
X001351Y013475D01*
X001390Y013506D01*
X001431Y013535D01*
X001475Y013560D01*
X001521Y013582D01*
X001568Y013600D01*
X001616Y013614D01*
X001665Y013625D01*
X001715Y013632D01*
X001765Y013635D01*
X001816Y013634D01*
X001866Y013629D01*
X001916Y013620D01*
X001964Y013608D01*
X002012Y013591D01*
X002058Y013571D01*
X002103Y013548D01*
X002146Y013521D01*
X002186Y013491D01*
X002224Y013458D01*
X002259Y013422D01*
X002292Y013383D01*
X002321Y013342D01*
X002347Y013299D01*
X002370Y013254D01*
X002389Y013207D01*
X002404Y013159D01*
X002416Y013110D01*
X002424Y013060D01*
X002428Y013010D01*
X002428Y012960D01*
X002424Y012910D01*
X002416Y012860D01*
X002404Y012811D01*
X002389Y012763D01*
X002370Y012716D01*
X002347Y012671D01*
X002321Y012628D01*
X002292Y012587D01*
X002259Y012548D01*
X002224Y012512D01*
X002186Y012479D01*
X002146Y012449D01*
X002103Y012422D01*
X002058Y012399D01*
X002012Y012379D01*
X001964Y012362D01*
X001916Y012350D01*
X001866Y012341D01*
X001816Y012336D01*
X001765Y012335D01*
X001715Y012338D01*
X001665Y012345D01*
X001616Y012356D01*
X001568Y012370D01*
X001521Y012388D01*
X001475Y012410D01*
X001431Y012435D01*
X001390Y012464D01*
X001351Y012495D01*
X001314Y012530D01*
X001280Y012567D01*
X001249Y012607D01*
X001221Y012649D01*
X001197Y012693D01*
X001176Y012739D01*
X001159Y012787D01*
X001146Y012835D01*
X001136Y012885D01*
X001130Y012935D01*
X001128Y012985D01*
D14*
X014338Y009504D02*
X014968Y009504D01*
X014984Y009499D01*
X015000Y009491D01*
X015014Y009481D01*
X015026Y009469D01*
X015036Y009454D01*
X015043Y009438D01*
X015047Y009421D01*
X015048Y009404D01*
X015046Y009386D01*
X014338Y009504D02*
X014322Y009499D01*
X014306Y009491D01*
X014292Y009481D01*
X014280Y009469D01*
X014270Y009454D01*
X014263Y009438D01*
X014259Y009421D01*
X014258Y009404D01*
X014260Y009386D01*
X014260Y008835D02*
X014258Y008817D01*
X014259Y008800D01*
X014263Y008783D01*
X014270Y008767D01*
X014280Y008752D01*
X014292Y008740D01*
X014306Y008730D01*
X014322Y008722D01*
X014338Y008717D01*
X014968Y008717D01*
X014984Y008722D01*
X015000Y008730D01*
X015014Y008740D01*
X015026Y008752D01*
X015036Y008767D01*
X015043Y008783D01*
X015047Y008800D01*
X015048Y008817D01*
X015046Y008835D01*
X014968Y010629D02*
X014968Y010967D01*
X015422Y011117D02*
X015634Y011117D01*
X016088Y010967D02*
X016088Y010629D01*
M02*
