G75*
%MOIN*%
%OFA0B0*%
%FSLAX24Y24*%
%IPPOS*%
%LPD*%
%AMOC8*
5,1,8,0,0,1.08239X$1,22.5*
%
%ADD10C,0.0125*%
%ADD11R,0.4500X0.2625*%
%ADD12R,0.0591X0.0787*%
%ADD13R,0.0354X0.0276*%
%ADD14R,0.0425X0.0413*%
%ADD15R,0.2441X0.2126*%
%ADD16R,0.0630X0.0394*%
%ADD17R,0.0591X0.0394*%
%ADD18R,0.0787X0.0394*%
%ADD19C,0.0866*%
%ADD20R,0.0787X0.0591*%
%ADD21R,0.0400X0.0400*%
%ADD22C,0.0104*%
%ADD23C,0.0520*%
%ADD24OC8,0.0520*%
%ADD25C,0.0600*%
%ADD26R,0.0512X0.0630*%
%ADD27C,0.0000*%
%ADD28OC8,0.0630*%
%ADD29C,0.0630*%
%ADD30C,0.0126*%
%ADD31OC8,0.0600*%
%ADD32C,0.0110*%
%ADD33C,0.0240*%
%ADD34OC8,0.0500*%
%ADD35C,0.0160*%
%ADD36R,0.0500X0.0500*%
D10*
X000653Y001298D02*
X000653Y014098D01*
X020088Y014098D01*
X020088Y001298D01*
X000653Y001298D01*
X000903Y001598D02*
X000903Y007248D01*
X003653Y007248D01*
X003760Y007350D01*
X003792Y007350D01*
X003900Y007459D01*
X004290Y007848D01*
X004998Y007848D01*
X004998Y006682D01*
X004868Y006552D01*
X004868Y006368D01*
X004697Y006198D01*
X004660Y006109D01*
X004660Y004800D01*
X004697Y004711D01*
X004778Y004630D01*
X004778Y004258D01*
X004735Y004300D01*
X004449Y004014D01*
X004424Y004039D01*
X004400Y004014D01*
X004424Y003989D01*
X004138Y003703D01*
X004249Y003592D01*
X004599Y003592D01*
X004711Y003703D01*
X004424Y003989D01*
X004449Y004014D01*
X004735Y003728D01*
X004778Y003770D01*
X004778Y003453D01*
X004749Y003383D01*
X004749Y003231D01*
X004778Y003161D01*
X004778Y001598D01*
X000903Y001598D01*
X000903Y001668D02*
X004778Y001668D01*
X004778Y001792D02*
X000903Y001792D01*
X000903Y001915D02*
X004778Y001915D01*
X004778Y002039D02*
X002470Y002039D01*
X002443Y002028D02*
X002749Y002155D01*
X002749Y002155D01*
X002984Y002389D01*
X003110Y002695D01*
X003110Y003026D01*
X002984Y003332D01*
X002749Y003566D01*
X002443Y003693D01*
X002112Y003693D01*
X001806Y003566D01*
X001572Y003332D01*
X001445Y003026D01*
X001445Y002695D01*
X001572Y002389D01*
X001572Y002389D01*
X001806Y002155D01*
X002112Y002028D01*
X002320Y002028D01*
X002443Y002028D01*
X002443Y002028D01*
X002757Y002162D02*
X004778Y002162D01*
X004778Y002286D02*
X002881Y002286D01*
X002984Y002389D02*
X002984Y002389D01*
X002992Y002409D02*
X004778Y002409D01*
X004778Y002533D02*
X003043Y002533D01*
X003094Y002656D02*
X004778Y002656D01*
X004778Y002780D02*
X003110Y002780D01*
X003110Y002903D02*
X004778Y002903D01*
X004778Y003027D02*
X003110Y003027D01*
X003059Y003150D02*
X004778Y003150D01*
X004749Y003274D02*
X003008Y003274D01*
X002984Y003332D02*
X002984Y003332D01*
X002918Y003397D02*
X004755Y003397D01*
X004778Y003521D02*
X002795Y003521D01*
X002749Y003566D02*
X002749Y003566D01*
X002561Y003644D02*
X004196Y003644D01*
X004113Y003728D02*
X004002Y003839D01*
X004002Y004189D01*
X004113Y004300D01*
X004400Y004014D01*
X004113Y003728D01*
X004073Y003768D02*
X000903Y003768D01*
X000903Y003891D02*
X004002Y003891D01*
X004002Y004015D02*
X000903Y004015D01*
X000903Y004138D02*
X004002Y004138D01*
X004075Y004262D02*
X000903Y004262D01*
X000903Y004385D02*
X004198Y004385D01*
X004249Y004437D02*
X004138Y004325D01*
X004424Y004039D01*
X004711Y004325D01*
X004599Y004437D01*
X004249Y004437D01*
X004201Y004262D02*
X004152Y004262D01*
X004275Y004138D02*
X004325Y004138D01*
X004399Y004015D02*
X004401Y004015D01*
X004448Y004015D02*
X004450Y004015D01*
X004522Y003891D02*
X004572Y003891D01*
X004646Y003768D02*
X004695Y003768D01*
X004776Y003768D02*
X004778Y003768D01*
X004778Y003644D02*
X004652Y003644D01*
X004327Y003891D02*
X004277Y003891D01*
X004203Y003768D02*
X004154Y003768D01*
X004524Y004138D02*
X004574Y004138D01*
X004648Y004262D02*
X004697Y004262D01*
X004774Y004262D02*
X004778Y004262D01*
X004778Y004385D02*
X004650Y004385D01*
X004778Y004509D02*
X000903Y004509D01*
X000903Y004632D02*
X004775Y004632D01*
X004679Y004756D02*
X000903Y004756D01*
X000903Y004879D02*
X004660Y004879D01*
X004660Y005003D02*
X000903Y005003D01*
X000903Y005126D02*
X004660Y005126D01*
X004660Y005250D02*
X000903Y005250D01*
X000903Y005373D02*
X004660Y005373D01*
X004660Y005497D02*
X000903Y005497D01*
X000903Y005620D02*
X004660Y005620D01*
X004660Y005744D02*
X000903Y005744D01*
X000903Y005867D02*
X004660Y005867D01*
X004660Y005991D02*
X000903Y005991D01*
X000903Y006114D02*
X004663Y006114D01*
X004737Y006238D02*
X000903Y006238D01*
X000903Y006361D02*
X004861Y006361D01*
X004868Y006485D02*
X000903Y006485D01*
X000903Y006608D02*
X004924Y006608D01*
X004998Y006732D02*
X000903Y006732D01*
X000903Y006855D02*
X004998Y006855D01*
X004998Y006979D02*
X000903Y006979D01*
X000903Y007102D02*
X004998Y007102D01*
X004998Y007226D02*
X000903Y007226D01*
X000903Y007535D02*
X000903Y013848D01*
X004153Y013848D01*
X004130Y013825D01*
X004130Y013310D01*
X004202Y013238D01*
X004630Y013238D01*
X004629Y013208D01*
X004202Y013208D01*
X004130Y013136D01*
X004130Y012621D01*
X004202Y012549D01*
X004223Y012549D01*
X004223Y011997D01*
X004260Y011908D01*
X004570Y011598D01*
X004528Y010473D01*
X004876Y010473D01*
X004999Y010350D01*
X005307Y010350D01*
X005430Y010473D01*
X005439Y010473D01*
X005561Y010350D01*
X005870Y010350D01*
X005992Y010473D01*
X006090Y010473D01*
X006090Y009192D01*
X006078Y009199D01*
X006037Y009210D01*
X005853Y009210D01*
X005853Y009170D01*
X005838Y009170D01*
X005838Y009411D01*
X005766Y009483D01*
X005165Y009483D01*
X005093Y009411D01*
X005093Y008810D01*
X005165Y008738D01*
X005362Y008738D01*
X005215Y008590D01*
X004792Y008590D01*
X004703Y008554D01*
X004120Y007970D01*
X003936Y007970D01*
X003718Y007752D01*
X003718Y007538D01*
X003715Y007535D01*
X000903Y007535D01*
X000903Y007596D02*
X003718Y007596D01*
X003718Y007720D02*
X000903Y007720D01*
X000903Y007843D02*
X003809Y007843D01*
X003933Y007967D02*
X000903Y007967D01*
X000903Y008090D02*
X004240Y008090D01*
X004363Y008214D02*
X000903Y008214D01*
X000903Y008337D02*
X003112Y008337D01*
X003125Y008324D02*
X003162Y008303D01*
X003203Y008292D01*
X003396Y008292D01*
X003396Y008586D01*
X003408Y008586D01*
X003408Y008598D01*
X003742Y008598D01*
X003742Y008751D01*
X003730Y008793D01*
X003709Y008830D01*
X003679Y008860D01*
X003658Y008872D01*
X003702Y008915D01*
X003702Y009292D01*
X003673Y009321D01*
X003679Y009324D01*
X003709Y009354D01*
X003730Y009392D01*
X003742Y009433D01*
X003742Y009586D01*
X003408Y009586D01*
X003408Y009598D01*
X003742Y009598D01*
X003742Y009751D01*
X003730Y009793D01*
X003709Y009830D01*
X003679Y009860D01*
X003658Y009872D01*
X003702Y009915D01*
X003702Y010292D01*
X003630Y010364D01*
X003441Y010364D01*
X003441Y010532D01*
X003473Y010545D01*
X003581Y010653D01*
X003639Y010793D01*
X003639Y010945D01*
X003581Y011086D01*
X003473Y011194D01*
X003333Y011252D01*
X003180Y011252D01*
X003040Y011194D01*
X002932Y011086D01*
X002874Y010945D01*
X002874Y010793D01*
X002932Y010653D01*
X003040Y010545D01*
X003071Y010532D01*
X003071Y010153D01*
X002954Y010035D01*
X002954Y010036D01*
X002882Y010108D01*
X002426Y010108D01*
X002421Y010103D01*
X002317Y010206D01*
X002162Y010270D01*
X001394Y010270D01*
X001239Y010206D01*
X001120Y010087D01*
X001055Y009932D01*
X001055Y009764D01*
X001120Y009609D01*
X001239Y009490D01*
X001394Y009425D01*
X002162Y009425D01*
X002317Y009490D01*
X002421Y009593D01*
X002426Y009588D01*
X002843Y009588D01*
X002843Y009271D01*
X002951Y009163D01*
X003102Y009012D01*
X003102Y008915D01*
X003146Y008872D01*
X003125Y008860D01*
X003095Y008830D01*
X003073Y008793D01*
X003062Y008751D01*
X003062Y008598D01*
X003395Y008598D01*
X003395Y008586D01*
X003062Y008586D01*
X003062Y008433D01*
X003073Y008392D01*
X003095Y008354D01*
X003125Y008324D01*
X003062Y008461D02*
X002248Y008461D01*
X002317Y008490D02*
X002421Y008593D01*
X002426Y008588D01*
X002882Y008588D01*
X002954Y008659D01*
X002954Y009036D01*
X002882Y009108D01*
X002426Y009108D01*
X002421Y009103D01*
X002317Y009206D01*
X002162Y009270D01*
X001394Y009270D01*
X001239Y009206D01*
X001120Y009087D01*
X001055Y008932D01*
X001055Y008764D01*
X001120Y008609D01*
X001239Y008490D01*
X001394Y008425D01*
X002162Y008425D01*
X002317Y008490D01*
X002412Y008584D02*
X003062Y008584D01*
X003062Y008708D02*
X002954Y008708D01*
X002954Y008831D02*
X003097Y008831D01*
X003102Y008955D02*
X002954Y008955D01*
X002912Y009078D02*
X003036Y009078D01*
X002912Y009202D02*
X002321Y009202D01*
X002219Y009449D02*
X002843Y009449D01*
X002843Y009572D02*
X002400Y009572D01*
X002653Y009348D02*
X001028Y009348D01*
X000903Y009325D02*
X002843Y009325D01*
X003028Y009348D02*
X003028Y009848D01*
X003284Y010104D01*
X003402Y010104D01*
X003256Y010104D01*
X003256Y010869D01*
X003594Y010684D02*
X004536Y010684D01*
X004540Y010807D02*
X003639Y010807D01*
X003639Y010931D02*
X004545Y010931D01*
X004549Y011054D02*
X003594Y011054D01*
X003489Y011178D02*
X004554Y011178D01*
X004559Y011301D02*
X002872Y011301D01*
X002860Y011290D02*
X002972Y011401D01*
X002972Y011752D01*
X002860Y011863D01*
X002574Y011577D01*
X002549Y011601D01*
X002525Y011577D01*
X002238Y011863D01*
X002127Y011752D01*
X002127Y011401D01*
X002238Y011290D01*
X002525Y011577D01*
X002549Y011552D01*
X002263Y011265D01*
X002374Y011154D01*
X002724Y011154D01*
X002836Y011265D01*
X002549Y011552D01*
X002574Y011577D01*
X002860Y011290D01*
X002849Y011301D02*
X002800Y011301D01*
X002748Y011178D02*
X003024Y011178D01*
X002919Y011054D02*
X000903Y011054D01*
X000903Y010931D02*
X002874Y010931D01*
X002874Y010807D02*
X000903Y010807D01*
X000903Y010684D02*
X002919Y010684D01*
X003024Y010560D02*
X000903Y010560D01*
X000903Y010437D02*
X003071Y010437D01*
X003071Y010313D02*
X000903Y010313D01*
X000903Y010190D02*
X001222Y010190D01*
X001111Y010066D02*
X000903Y010066D01*
X000903Y009943D02*
X001060Y009943D01*
X001055Y009819D02*
X000903Y009819D01*
X000903Y009696D02*
X001084Y009696D01*
X001156Y009572D02*
X000903Y009572D01*
X000903Y009449D02*
X001337Y009449D01*
X001234Y009202D02*
X000903Y009202D01*
X000903Y009078D02*
X001116Y009078D01*
X001065Y008955D02*
X000903Y008955D01*
X000903Y008831D02*
X001055Y008831D01*
X001079Y008708D02*
X000903Y008708D01*
X000903Y008584D02*
X001144Y008584D01*
X001308Y008461D02*
X000903Y008461D01*
X003028Y009348D02*
X003272Y009104D01*
X003402Y009104D01*
X003702Y009078D02*
X005093Y009078D01*
X005093Y008955D02*
X003702Y008955D01*
X003707Y008831D02*
X005093Y008831D01*
X005332Y008708D02*
X003742Y008708D01*
X003742Y008586D02*
X003408Y008586D01*
X003408Y008292D01*
X003600Y008292D01*
X003642Y008303D01*
X003679Y008324D01*
X003709Y008354D01*
X003730Y008392D01*
X003742Y008433D01*
X003742Y008586D01*
X003742Y008584D02*
X004778Y008584D01*
X004610Y008461D02*
X003742Y008461D01*
X003692Y008337D02*
X004487Y008337D01*
X004285Y007843D02*
X004998Y007843D01*
X004998Y007720D02*
X004162Y007720D01*
X004038Y007596D02*
X004998Y007596D01*
X004998Y007473D02*
X003915Y007473D01*
X003759Y007349D02*
X004998Y007349D01*
X005278Y007349D02*
X006403Y007349D01*
X006403Y007226D02*
X005278Y007226D01*
X005278Y007102D02*
X006403Y007102D01*
X006403Y006979D02*
X005278Y006979D01*
X005278Y006855D02*
X006403Y006855D01*
X006403Y006732D02*
X005278Y006732D01*
X005278Y006608D02*
X006403Y006608D01*
X006403Y006485D02*
X005278Y006485D01*
X005278Y006361D02*
X006403Y006361D01*
X006403Y006238D02*
X005278Y006238D01*
X005278Y006153D02*
X005278Y007738D01*
X005766Y007738D01*
X005838Y007810D01*
X005838Y008025D01*
X006066Y008025D01*
X006079Y008038D01*
X006093Y008038D01*
X006093Y007810D01*
X006165Y007738D01*
X006403Y007738D01*
X006403Y006195D01*
X006381Y006195D01*
X006226Y006131D01*
X006107Y006012D01*
X006043Y005857D01*
X006043Y005348D01*
X005888Y005348D01*
X005888Y005857D01*
X005824Y006012D01*
X005705Y006131D01*
X005549Y006195D01*
X005381Y006195D01*
X005278Y006153D01*
X005721Y006114D02*
X006209Y006114D01*
X006098Y005991D02*
X005832Y005991D01*
X005884Y005867D02*
X006047Y005867D01*
X006043Y005744D02*
X005888Y005744D01*
X005888Y005620D02*
X006043Y005620D01*
X006043Y005497D02*
X005888Y005497D01*
X005888Y005373D02*
X006043Y005373D01*
X007229Y006522D02*
X007257Y006494D01*
X007302Y006540D01*
X007404Y006540D01*
X007846Y006098D01*
X008174Y006098D01*
X008201Y006125D01*
X008201Y006231D01*
X007648Y006784D01*
X007648Y006886D01*
X007991Y007229D01*
X007270Y007950D01*
X007270Y007132D01*
X007400Y007002D01*
X007400Y006694D01*
X007229Y006522D01*
X007315Y006608D02*
X007824Y006608D01*
X007948Y006485D02*
X007459Y006485D01*
X007583Y006361D02*
X008071Y006361D01*
X008195Y006238D02*
X007706Y006238D01*
X007830Y006114D02*
X008191Y006114D01*
X008686Y006125D02*
X008686Y006464D01*
X008721Y006499D01*
X009470Y005750D01*
X009432Y005712D01*
X009390Y005611D01*
X008903Y006098D01*
X008713Y006098D01*
X008686Y006125D01*
X008697Y006114D02*
X009106Y006114D01*
X009010Y005991D02*
X009229Y005991D01*
X009133Y005867D02*
X009353Y005867D01*
X009257Y005744D02*
X009464Y005744D01*
X009394Y005620D02*
X009380Y005620D01*
X009856Y006050D02*
X010474Y006050D01*
X010630Y006115D01*
X010749Y006234D01*
X010813Y006389D01*
X010813Y006557D01*
X010749Y006712D01*
X010630Y006831D01*
X010474Y006895D01*
X009706Y006895D01*
X009551Y006831D01*
X009432Y006712D01*
X009368Y006557D01*
X009368Y006538D01*
X007442Y008464D01*
X007442Y009732D01*
X007546Y009732D01*
X007618Y009804D01*
X007618Y010692D01*
X007595Y010715D01*
X007749Y010715D01*
X007973Y010940D01*
X007973Y011256D01*
X007881Y011348D01*
X008299Y011348D01*
X008266Y011315D01*
X008208Y011174D01*
X008208Y011022D01*
X008266Y010881D01*
X008348Y010800D01*
X008348Y010764D01*
X008035Y010764D01*
X007963Y010692D01*
X007963Y009804D01*
X008035Y009732D01*
X008727Y009732D01*
X008799Y009804D01*
X008799Y010117D01*
X008833Y010200D01*
X008833Y010800D01*
X008915Y010881D01*
X008973Y011022D01*
X008973Y011174D01*
X008915Y011315D01*
X008881Y011348D01*
X012153Y011348D01*
X012153Y010258D01*
X012080Y010331D01*
X011924Y010395D01*
X011156Y010395D01*
X011001Y010331D01*
X010882Y010212D01*
X010818Y010057D01*
X010818Y009889D01*
X010882Y009734D01*
X011001Y009615D01*
X011156Y009550D01*
X011924Y009550D01*
X012080Y009615D01*
X012153Y009688D01*
X012153Y009258D01*
X012080Y009331D01*
X011924Y009395D01*
X011156Y009395D01*
X011001Y009331D01*
X010882Y009212D01*
X010818Y009057D01*
X010818Y008889D01*
X010882Y008734D01*
X011001Y008615D01*
X011156Y008550D01*
X011924Y008550D01*
X012080Y008615D01*
X012153Y008688D01*
X012153Y008258D01*
X012080Y008331D01*
X011924Y008395D01*
X011156Y008395D01*
X011001Y008331D01*
X010882Y008212D01*
X010818Y008057D01*
X010818Y007889D01*
X010882Y007734D01*
X011001Y007615D01*
X011156Y007550D01*
X011924Y007550D01*
X012080Y007615D01*
X012153Y007688D01*
X012153Y007258D01*
X012080Y007331D01*
X011924Y007395D01*
X011156Y007395D01*
X011001Y007331D01*
X010882Y007212D01*
X010818Y007057D01*
X010818Y006889D01*
X010882Y006734D01*
X011001Y006615D01*
X011156Y006550D01*
X011924Y006550D01*
X012080Y006615D01*
X012153Y006688D01*
X012153Y006258D01*
X012080Y006331D01*
X011924Y006395D01*
X011156Y006395D01*
X011001Y006331D01*
X010882Y006212D01*
X010818Y006057D01*
X010818Y005889D01*
X010882Y005734D01*
X011001Y005615D01*
X011156Y005550D01*
X011924Y005550D01*
X012080Y005615D01*
X012153Y005688D01*
X012153Y005098D01*
X011871Y005098D01*
X011871Y005123D01*
X011807Y005278D01*
X011688Y005397D01*
X011533Y005461D01*
X011365Y005461D01*
X011210Y005397D01*
X010911Y005098D01*
X010589Y005098D01*
X010630Y005115D01*
X010749Y005234D01*
X010813Y005389D01*
X010813Y005557D01*
X010749Y005712D01*
X010630Y005831D01*
X010474Y005895D01*
X010011Y005895D01*
X009856Y006050D01*
X009915Y005991D02*
X010818Y005991D01*
X010827Y005867D02*
X010542Y005867D01*
X010717Y005744D02*
X010878Y005744D01*
X010787Y005620D02*
X010995Y005620D01*
X010813Y005497D02*
X012153Y005497D01*
X012153Y005620D02*
X012085Y005620D01*
X012153Y005373D02*
X011712Y005373D01*
X011819Y005250D02*
X012153Y005250D01*
X012153Y005126D02*
X011870Y005126D01*
X011186Y005373D02*
X010806Y005373D01*
X010755Y005250D02*
X011063Y005250D01*
X010939Y005126D02*
X010641Y005126D01*
X010629Y006114D02*
X010842Y006114D01*
X010908Y006238D02*
X010750Y006238D01*
X010802Y006361D02*
X011074Y006361D01*
X011016Y006608D02*
X010792Y006608D01*
X010813Y006485D02*
X012153Y006485D01*
X012153Y006608D02*
X012064Y006608D01*
X012006Y006361D02*
X012153Y006361D01*
X012153Y007349D02*
X012035Y007349D01*
X012153Y007473D02*
X010813Y007473D01*
X010813Y007557D02*
X010749Y007712D01*
X010630Y007831D01*
X010474Y007895D01*
X009706Y007895D01*
X009551Y007831D01*
X009432Y007712D01*
X009368Y007557D01*
X009368Y007389D01*
X009432Y007234D01*
X009551Y007115D01*
X009706Y007050D01*
X010474Y007050D01*
X010630Y007115D01*
X010749Y007234D01*
X010813Y007389D01*
X010813Y007557D01*
X010797Y007596D02*
X011045Y007596D01*
X010896Y007720D02*
X010741Y007720D01*
X010837Y007843D02*
X010600Y007843D01*
X010474Y008050D02*
X010630Y008115D01*
X010749Y008234D01*
X010813Y008389D01*
X010813Y008557D01*
X010749Y008712D01*
X010630Y008831D01*
X010474Y008895D01*
X009706Y008895D01*
X009551Y008831D01*
X009432Y008712D01*
X009368Y008557D01*
X009368Y008389D01*
X009432Y008234D01*
X009551Y008115D01*
X009706Y008050D01*
X010474Y008050D01*
X010571Y008090D02*
X010832Y008090D01*
X010818Y007967D02*
X007939Y007967D01*
X007816Y008090D02*
X009610Y008090D01*
X009452Y008214D02*
X007692Y008214D01*
X007569Y008337D02*
X009389Y008337D01*
X009368Y008461D02*
X007445Y008461D01*
X007442Y008584D02*
X009379Y008584D01*
X009430Y008708D02*
X007442Y008708D01*
X007442Y008831D02*
X009552Y008831D01*
X009639Y009078D02*
X007442Y009078D01*
X007442Y008955D02*
X010818Y008955D01*
X010827Y009078D02*
X010542Y009078D01*
X010474Y009050D02*
X010630Y009115D01*
X010749Y009234D01*
X010813Y009389D01*
X010813Y009557D01*
X010749Y009712D01*
X010630Y009831D01*
X010474Y009895D01*
X009706Y009895D01*
X009551Y009831D01*
X009432Y009712D01*
X009368Y009557D01*
X009368Y009389D01*
X009432Y009234D01*
X009551Y009115D01*
X009706Y009050D01*
X010474Y009050D01*
X010717Y009202D02*
X010878Y009202D01*
X010787Y009325D02*
X010995Y009325D01*
X010813Y009449D02*
X012153Y009449D01*
X012153Y009572D02*
X011978Y009572D01*
X012085Y009325D02*
X012153Y009325D01*
X012153Y008584D02*
X012007Y008584D01*
X012153Y008461D02*
X010813Y008461D01*
X010802Y008584D02*
X011074Y008584D01*
X010908Y008708D02*
X010750Y008708D01*
X010842Y008831D02*
X010629Y008831D01*
X010792Y008337D02*
X011016Y008337D01*
X010884Y008214D02*
X010729Y008214D01*
X010797Y007349D02*
X011045Y007349D01*
X010896Y007226D02*
X010741Y007226D01*
X010837Y007102D02*
X010600Y007102D01*
X010571Y006855D02*
X010832Y006855D01*
X010818Y006979D02*
X008927Y006979D01*
X008804Y007102D02*
X009581Y007102D01*
X009440Y007226D02*
X008680Y007226D01*
X008557Y007349D02*
X009384Y007349D01*
X009368Y007473D02*
X008433Y007473D01*
X008310Y007596D02*
X009384Y007596D01*
X009440Y007720D02*
X008186Y007720D01*
X008063Y007843D02*
X009581Y007843D01*
X009610Y006855D02*
X009051Y006855D01*
X009174Y006732D02*
X009452Y006732D01*
X009389Y006608D02*
X009298Y006608D01*
X008982Y006238D02*
X008686Y006238D01*
X008686Y006361D02*
X008859Y006361D01*
X008735Y006485D02*
X008707Y006485D01*
X007865Y007102D02*
X007300Y007102D01*
X007270Y007226D02*
X007988Y007226D01*
X007871Y007349D02*
X007270Y007349D01*
X007270Y007473D02*
X007747Y007473D01*
X007624Y007596D02*
X007270Y007596D01*
X007270Y007720D02*
X007500Y007720D01*
X007377Y007843D02*
X007270Y007843D01*
X006785Y007757D02*
X006785Y007132D01*
X006702Y007049D01*
X006653Y007098D01*
X006653Y007738D01*
X006766Y007738D01*
X006785Y007757D01*
X006785Y007720D02*
X006653Y007720D01*
X006653Y007596D02*
X006785Y007596D01*
X006785Y007473D02*
X006653Y007473D01*
X006653Y007349D02*
X006785Y007349D01*
X006785Y007226D02*
X006653Y007226D01*
X006653Y007102D02*
X006756Y007102D01*
X006403Y007473D02*
X005278Y007473D01*
X005278Y007596D02*
X006403Y007596D01*
X006403Y007720D02*
X005278Y007720D01*
X005838Y007843D02*
X006093Y007843D01*
X006093Y007967D02*
X005838Y007967D01*
X006653Y008590D02*
X006957Y008590D01*
X006957Y009732D01*
X006854Y009732D01*
X006782Y009804D01*
X006782Y010692D01*
X006854Y010764D01*
X007035Y010764D01*
X007035Y010834D01*
X007072Y010923D01*
X007141Y010991D01*
X007208Y011058D01*
X007208Y011256D01*
X007299Y011348D01*
X006770Y011348D01*
X006770Y009479D01*
X006838Y009411D01*
X006838Y009006D01*
X006858Y008985D01*
X006895Y008896D01*
X006895Y008800D01*
X006858Y008711D01*
X006790Y008642D01*
X006701Y008605D01*
X006666Y008605D01*
X006653Y008593D01*
X006653Y008590D01*
X006856Y008708D02*
X006957Y008708D01*
X006957Y008831D02*
X006895Y008831D01*
X006871Y008955D02*
X006957Y008955D01*
X006957Y009078D02*
X006838Y009078D01*
X006838Y009202D02*
X006957Y009202D01*
X006957Y009325D02*
X006838Y009325D01*
X006800Y009449D02*
X006957Y009449D01*
X006957Y009572D02*
X006770Y009572D01*
X006770Y009696D02*
X006957Y009696D01*
X006782Y009819D02*
X006770Y009819D01*
X006770Y009943D02*
X006782Y009943D01*
X006770Y010066D02*
X006782Y010066D01*
X006770Y010190D02*
X006782Y010190D01*
X006770Y010313D02*
X006782Y010313D01*
X006770Y010437D02*
X006782Y010437D01*
X006770Y010560D02*
X006782Y010560D01*
X006770Y010684D02*
X006782Y010684D01*
X006770Y010807D02*
X007035Y010807D01*
X007080Y010931D02*
X006770Y010931D01*
X006770Y011054D02*
X007204Y011054D01*
X007208Y011178D02*
X006770Y011178D01*
X006770Y011301D02*
X007253Y011301D01*
X007928Y011301D02*
X008261Y011301D01*
X008210Y011178D02*
X007973Y011178D01*
X007973Y011054D02*
X008208Y011054D01*
X008246Y010931D02*
X007964Y010931D01*
X007841Y010807D02*
X008340Y010807D01*
X007963Y010684D02*
X007618Y010684D01*
X007618Y010560D02*
X007963Y010560D01*
X007963Y010437D02*
X007618Y010437D01*
X007618Y010313D02*
X007963Y010313D01*
X007963Y010190D02*
X007618Y010190D01*
X007618Y010066D02*
X007963Y010066D01*
X007963Y009943D02*
X007618Y009943D01*
X007618Y009819D02*
X007963Y009819D01*
X007442Y009696D02*
X009425Y009696D01*
X009374Y009572D02*
X007442Y009572D01*
X007442Y009449D02*
X009368Y009449D01*
X009394Y009325D02*
X007442Y009325D01*
X007442Y009202D02*
X009464Y009202D01*
X009539Y009819D02*
X008799Y009819D01*
X008799Y009943D02*
X010818Y009943D01*
X010822Y010066D02*
X010513Y010066D01*
X010474Y010050D02*
X010630Y010115D01*
X010749Y010234D01*
X010813Y010389D01*
X010813Y010557D01*
X010749Y010712D01*
X010630Y010831D01*
X010474Y010895D01*
X009706Y010895D01*
X009551Y010831D01*
X009432Y010712D01*
X009368Y010557D01*
X009368Y010389D01*
X009432Y010234D01*
X009551Y010115D01*
X009706Y010050D01*
X010474Y010050D01*
X010705Y010190D02*
X010873Y010190D01*
X010782Y010313D02*
X010983Y010313D01*
X010813Y010437D02*
X012153Y010437D01*
X012153Y010560D02*
X010811Y010560D01*
X010760Y010684D02*
X012153Y010684D01*
X012153Y010807D02*
X010653Y010807D01*
X009527Y010807D02*
X008841Y010807D01*
X008833Y010684D02*
X009420Y010684D01*
X009369Y010560D02*
X008833Y010560D01*
X008833Y010437D02*
X009368Y010437D01*
X009399Y010313D02*
X008833Y010313D01*
X008829Y010190D02*
X009476Y010190D01*
X009668Y010066D02*
X008799Y010066D01*
X008935Y010931D02*
X012153Y010931D01*
X012153Y011054D02*
X008973Y011054D01*
X008971Y011178D02*
X012153Y011178D01*
X012153Y011301D02*
X008920Y011301D01*
X010641Y009819D02*
X010847Y009819D01*
X010920Y009696D02*
X010755Y009696D01*
X010806Y009572D02*
X011103Y009572D01*
X012097Y010313D02*
X012153Y010313D01*
X012153Y008337D02*
X012064Y008337D01*
X012036Y007596D02*
X012153Y007596D01*
X010884Y006732D02*
X010729Y006732D01*
X007741Y006979D02*
X007400Y006979D01*
X007400Y006855D02*
X007648Y006855D01*
X007701Y006732D02*
X007400Y006732D01*
X006090Y009202D02*
X006068Y009202D01*
X006090Y009325D02*
X005838Y009325D01*
X005838Y009202D02*
X005853Y009202D01*
X005800Y009449D02*
X006090Y009449D01*
X006090Y009572D02*
X003742Y009572D01*
X003742Y009449D02*
X005131Y009449D01*
X005093Y009325D02*
X003680Y009325D01*
X003702Y009202D02*
X005093Y009202D01*
X006090Y009696D02*
X003742Y009696D01*
X003715Y009819D02*
X006090Y009819D01*
X006090Y009943D02*
X003702Y009943D01*
X003702Y010066D02*
X006090Y010066D01*
X006090Y010190D02*
X003702Y010190D01*
X003680Y010313D02*
X006090Y010313D01*
X006090Y010437D02*
X005956Y010437D01*
X005715Y010723D02*
X005715Y010848D01*
X005528Y011035D01*
X005528Y012098D01*
X005981Y012551D01*
X005981Y013010D01*
X004372Y011795D02*
X002928Y011795D01*
X002972Y011672D02*
X004496Y011672D01*
X004568Y011548D02*
X002972Y011548D01*
X002972Y011425D02*
X004563Y011425D01*
X004255Y011919D02*
X002804Y011919D01*
X002836Y011888D02*
X002724Y011999D01*
X002374Y011999D01*
X002263Y011888D01*
X002549Y011601D01*
X002836Y011888D01*
X002793Y011795D02*
X002744Y011795D01*
X002670Y011672D02*
X002620Y011672D01*
X002602Y011548D02*
X002553Y011548D01*
X002546Y011548D02*
X002497Y011548D01*
X002479Y011672D02*
X002429Y011672D01*
X002355Y011795D02*
X002306Y011795D01*
X002294Y011919D02*
X000903Y011919D01*
X000903Y012042D02*
X004223Y012042D01*
X004223Y012166D02*
X001975Y012166D01*
X001943Y012153D02*
X002249Y012280D01*
X002249Y012280D01*
X002484Y012514D01*
X002610Y012820D01*
X002610Y013151D01*
X002484Y013457D01*
X002249Y013691D01*
X001943Y013818D01*
X001612Y013818D01*
X001306Y013691D01*
X001072Y013457D01*
X000945Y013151D01*
X000945Y012820D01*
X001072Y012514D01*
X001072Y012514D01*
X001306Y012280D01*
X001612Y012153D01*
X001820Y012153D01*
X001943Y012153D01*
X001943Y012153D01*
X002259Y012289D02*
X004223Y012289D01*
X004223Y012413D02*
X002383Y012413D01*
X002484Y012514D02*
X002484Y012514D01*
X002493Y012536D02*
X004223Y012536D01*
X004130Y012660D02*
X002544Y012660D01*
X002595Y012783D02*
X004130Y012783D01*
X004130Y012907D02*
X002610Y012907D01*
X002610Y013030D02*
X004130Y013030D01*
X004148Y013154D02*
X002609Y013154D01*
X002558Y013277D02*
X004163Y013277D01*
X004130Y013401D02*
X002507Y013401D01*
X002484Y013457D02*
X002484Y013457D01*
X002416Y013524D02*
X004130Y013524D01*
X004130Y013648D02*
X002293Y013648D01*
X002249Y013691D02*
X002249Y013691D01*
X002056Y013771D02*
X004130Y013771D01*
X002171Y011795D02*
X000903Y011795D01*
X000903Y011672D02*
X002127Y011672D01*
X002127Y011548D02*
X000903Y011548D01*
X000903Y011425D02*
X002127Y011425D01*
X002227Y011301D02*
X000903Y011301D01*
X000903Y011178D02*
X002350Y011178D01*
X002299Y011301D02*
X002250Y011301D01*
X002373Y011425D02*
X002423Y011425D01*
X002676Y011425D02*
X002726Y011425D01*
X003488Y010560D02*
X004531Y010560D01*
X004912Y010437D02*
X003441Y010437D01*
X003071Y010190D02*
X002333Y010190D01*
X002924Y010066D02*
X002985Y010066D01*
X003396Y010098D02*
X003402Y010104D01*
X003396Y008584D02*
X003408Y008584D01*
X003396Y008461D02*
X003408Y008461D01*
X003396Y008337D02*
X003408Y008337D01*
X005394Y010437D02*
X005475Y010437D01*
X001581Y012166D02*
X000903Y012166D01*
X000903Y012289D02*
X001297Y012289D01*
X001306Y012280D02*
X001306Y012280D01*
X001173Y012413D02*
X000903Y012413D01*
X000903Y012536D02*
X001063Y012536D01*
X001012Y012660D02*
X000903Y012660D01*
X000903Y012783D02*
X000960Y012783D01*
X000945Y012907D02*
X000903Y012907D01*
X000903Y013030D02*
X000945Y013030D01*
X000947Y013154D02*
X000903Y013154D01*
X000903Y013277D02*
X000998Y013277D01*
X001049Y013401D02*
X000903Y013401D01*
X000903Y013524D02*
X001140Y013524D01*
X001072Y013457D02*
X001072Y013457D01*
X000903Y013648D02*
X001263Y013648D01*
X001306Y013691D02*
X001306Y013691D01*
X001500Y013771D02*
X000903Y013771D01*
X000903Y003644D02*
X001995Y003644D01*
X001806Y003566D02*
X001806Y003566D01*
X001761Y003521D02*
X000903Y003521D01*
X000903Y003397D02*
X001638Y003397D01*
X001572Y003332D02*
X001572Y003332D01*
X001548Y003274D02*
X000903Y003274D01*
X000903Y003150D02*
X001497Y003150D01*
X001446Y003027D02*
X000903Y003027D01*
X000903Y002903D02*
X001445Y002903D01*
X001445Y002780D02*
X000903Y002780D01*
X000903Y002656D02*
X001461Y002656D01*
X001512Y002533D02*
X000903Y002533D01*
X000903Y002409D02*
X001564Y002409D01*
X001675Y002286D02*
X000903Y002286D01*
X000903Y002162D02*
X001799Y002162D01*
X001806Y002155D02*
X001806Y002155D01*
X002086Y002039D02*
X000903Y002039D01*
D11*
X006590Y008423D03*
D12*
X007200Y010248D03*
X008381Y010248D03*
G36*
X008744Y006697D02*
X008327Y006280D01*
X007772Y006835D01*
X008189Y007252D01*
X008744Y006697D01*
G37*
G36*
X007909Y005861D02*
X007492Y005444D01*
X006937Y005999D01*
X007354Y006416D01*
X007909Y005861D01*
G37*
X009125Y004523D03*
X010306Y004523D03*
D13*
X007277Y004729D03*
X007277Y004217D03*
X006529Y004473D03*
X005839Y004348D03*
X005091Y004604D03*
X005091Y004092D03*
X003402Y008592D03*
X003402Y009104D03*
X003402Y009592D03*
X003402Y010104D03*
X002654Y009848D03*
X002654Y008848D03*
D14*
X006590Y012753D03*
X006590Y013442D03*
X004465Y013567D03*
X004465Y012878D03*
D15*
X006981Y002723D03*
D16*
X009855Y003621D03*
X009855Y001825D03*
D17*
X010245Y012258D03*
X010245Y013438D03*
D18*
X010145Y012848D03*
D19*
X009390Y012848D02*
X008800Y012848D01*
D20*
X007715Y013439D03*
X007715Y012257D03*
X011965Y012382D03*
X011965Y013564D03*
X016528Y006451D03*
X016528Y005270D03*
X011590Y003064D03*
X011590Y001882D03*
D21*
X005815Y008348D03*
X005815Y008348D03*
X006315Y008598D03*
X006315Y008598D03*
X005815Y008848D03*
X005815Y008848D03*
D22*
X002515Y011732D02*
X002463Y011784D01*
X002635Y011784D01*
X002756Y011663D01*
X002756Y011491D01*
X002635Y011370D01*
X002463Y011370D01*
X002342Y011491D01*
X002342Y011663D01*
X002463Y011784D01*
X002495Y011706D01*
X002603Y011706D01*
X002678Y011631D01*
X002678Y011523D01*
X002603Y011448D01*
X002495Y011448D01*
X002420Y011523D01*
X002420Y011631D01*
X002495Y011706D01*
X002528Y011628D01*
X002570Y011628D01*
X002600Y011598D01*
X002600Y011556D01*
X002570Y011526D01*
X002528Y011526D01*
X002498Y011556D01*
X002498Y011598D01*
X002528Y011628D01*
X008599Y005861D02*
X008651Y005913D01*
X008651Y005741D01*
X008530Y005620D01*
X008358Y005620D01*
X008237Y005741D01*
X008237Y005913D01*
X008358Y006034D01*
X008530Y006034D01*
X008651Y005913D01*
X008573Y005881D01*
X008573Y005773D01*
X008498Y005698D01*
X008390Y005698D01*
X008315Y005773D01*
X008315Y005881D01*
X008390Y005956D01*
X008498Y005956D01*
X008573Y005881D01*
X008495Y005848D01*
X008495Y005806D01*
X008465Y005776D01*
X008423Y005776D01*
X008393Y005806D01*
X008393Y005848D01*
X008423Y005878D01*
X008465Y005878D01*
X008495Y005848D01*
X004390Y004169D02*
X004338Y004221D01*
X004510Y004221D01*
X004631Y004100D01*
X004631Y003928D01*
X004510Y003807D01*
X004338Y003807D01*
X004217Y003928D01*
X004217Y004100D01*
X004338Y004221D01*
X004370Y004143D01*
X004478Y004143D01*
X004553Y004068D01*
X004553Y003960D01*
X004478Y003885D01*
X004370Y003885D01*
X004295Y003960D01*
X004295Y004068D01*
X004370Y004143D01*
X004403Y004065D01*
X004445Y004065D01*
X004475Y004035D01*
X004475Y003993D01*
X004445Y003963D01*
X004403Y003963D01*
X004373Y003993D01*
X004373Y004035D01*
X004403Y004065D01*
D23*
X005131Y003307D03*
X007737Y005119D03*
X010715Y002348D03*
X014590Y004610D03*
X017715Y004798D03*
X008590Y011098D03*
X011090Y012473D03*
X003256Y010869D03*
D24*
X007590Y011098D03*
X011090Y013473D03*
X014590Y005610D03*
X010715Y003348D03*
X018715Y004798D03*
D25*
X014015Y003423D02*
X013415Y003423D01*
X013415Y002423D02*
X014015Y002423D01*
X012156Y004332D02*
X011732Y003907D01*
X011025Y004614D02*
X011449Y005039D01*
X010390Y005473D02*
X009790Y005473D01*
X009790Y006473D02*
X010390Y006473D01*
X011240Y006973D02*
X011840Y006973D01*
X011840Y005973D02*
X011240Y005973D01*
X010390Y007473D02*
X009790Y007473D01*
X009790Y008473D02*
X010390Y008473D01*
X011240Y008973D02*
X011840Y008973D01*
X011840Y009973D02*
X011240Y009973D01*
X010390Y010473D02*
X009790Y010473D01*
X009790Y009473D02*
X010390Y009473D01*
X011240Y007973D02*
X011840Y007973D01*
X006465Y005773D02*
X006465Y005173D01*
X005465Y005173D02*
X005465Y005773D01*
X002078Y008848D02*
X001478Y008848D01*
X001478Y009848D02*
X002078Y009848D01*
D26*
X005075Y011436D03*
X005981Y011436D03*
X005981Y013010D03*
X005075Y013010D03*
D27*
X001128Y012985D02*
X001130Y013035D01*
X001136Y013085D01*
X001146Y013135D01*
X001159Y013183D01*
X001176Y013231D01*
X001197Y013277D01*
X001221Y013321D01*
X001249Y013363D01*
X001280Y013403D01*
X001314Y013440D01*
X001351Y013475D01*
X001390Y013506D01*
X001431Y013535D01*
X001475Y013560D01*
X001521Y013582D01*
X001568Y013600D01*
X001616Y013614D01*
X001665Y013625D01*
X001715Y013632D01*
X001765Y013635D01*
X001816Y013634D01*
X001866Y013629D01*
X001916Y013620D01*
X001964Y013608D01*
X002012Y013591D01*
X002058Y013571D01*
X002103Y013548D01*
X002146Y013521D01*
X002186Y013491D01*
X002224Y013458D01*
X002259Y013422D01*
X002292Y013383D01*
X002321Y013342D01*
X002347Y013299D01*
X002370Y013254D01*
X002389Y013207D01*
X002404Y013159D01*
X002416Y013110D01*
X002424Y013060D01*
X002428Y013010D01*
X002428Y012960D01*
X002424Y012910D01*
X002416Y012860D01*
X002404Y012811D01*
X002389Y012763D01*
X002370Y012716D01*
X002347Y012671D01*
X002321Y012628D01*
X002292Y012587D01*
X002259Y012548D01*
X002224Y012512D01*
X002186Y012479D01*
X002146Y012449D01*
X002103Y012422D01*
X002058Y012399D01*
X002012Y012379D01*
X001964Y012362D01*
X001916Y012350D01*
X001866Y012341D01*
X001816Y012336D01*
X001765Y012335D01*
X001715Y012338D01*
X001665Y012345D01*
X001616Y012356D01*
X001568Y012370D01*
X001521Y012388D01*
X001475Y012410D01*
X001431Y012435D01*
X001390Y012464D01*
X001351Y012495D01*
X001314Y012530D01*
X001280Y012567D01*
X001249Y012607D01*
X001221Y012649D01*
X001197Y012693D01*
X001176Y012739D01*
X001159Y012787D01*
X001146Y012835D01*
X001136Y012885D01*
X001130Y012935D01*
X001128Y012985D01*
X013003Y006673D02*
X013005Y006723D01*
X013011Y006773D01*
X013021Y006823D01*
X013034Y006871D01*
X013051Y006919D01*
X013072Y006965D01*
X013096Y007009D01*
X013124Y007051D01*
X013155Y007091D01*
X013189Y007128D01*
X013226Y007163D01*
X013265Y007194D01*
X013306Y007223D01*
X013350Y007248D01*
X013396Y007270D01*
X013443Y007288D01*
X013491Y007302D01*
X013540Y007313D01*
X013590Y007320D01*
X013640Y007323D01*
X013691Y007322D01*
X013741Y007317D01*
X013791Y007308D01*
X013839Y007296D01*
X013887Y007279D01*
X013933Y007259D01*
X013978Y007236D01*
X014021Y007209D01*
X014061Y007179D01*
X014099Y007146D01*
X014134Y007110D01*
X014167Y007071D01*
X014196Y007030D01*
X014222Y006987D01*
X014245Y006942D01*
X014264Y006895D01*
X014279Y006847D01*
X014291Y006798D01*
X014299Y006748D01*
X014303Y006698D01*
X014303Y006648D01*
X014299Y006598D01*
X014291Y006548D01*
X014279Y006499D01*
X014264Y006451D01*
X014245Y006404D01*
X014222Y006359D01*
X014196Y006316D01*
X014167Y006275D01*
X014134Y006236D01*
X014099Y006200D01*
X014061Y006167D01*
X014021Y006137D01*
X013978Y006110D01*
X013933Y006087D01*
X013887Y006067D01*
X013839Y006050D01*
X013791Y006038D01*
X013741Y006029D01*
X013691Y006024D01*
X013640Y006023D01*
X013590Y006026D01*
X013540Y006033D01*
X013491Y006044D01*
X013443Y006058D01*
X013396Y006076D01*
X013350Y006098D01*
X013306Y006123D01*
X013265Y006152D01*
X013226Y006183D01*
X013189Y006218D01*
X013155Y006255D01*
X013124Y006295D01*
X013096Y006337D01*
X013072Y006381D01*
X013051Y006427D01*
X013034Y006475D01*
X013021Y006523D01*
X013011Y006573D01*
X013005Y006623D01*
X013003Y006673D01*
X018503Y006673D02*
X018505Y006723D01*
X018511Y006773D01*
X018521Y006823D01*
X018534Y006871D01*
X018551Y006919D01*
X018572Y006965D01*
X018596Y007009D01*
X018624Y007051D01*
X018655Y007091D01*
X018689Y007128D01*
X018726Y007163D01*
X018765Y007194D01*
X018806Y007223D01*
X018850Y007248D01*
X018896Y007270D01*
X018943Y007288D01*
X018991Y007302D01*
X019040Y007313D01*
X019090Y007320D01*
X019140Y007323D01*
X019191Y007322D01*
X019241Y007317D01*
X019291Y007308D01*
X019339Y007296D01*
X019387Y007279D01*
X019433Y007259D01*
X019478Y007236D01*
X019521Y007209D01*
X019561Y007179D01*
X019599Y007146D01*
X019634Y007110D01*
X019667Y007071D01*
X019696Y007030D01*
X019722Y006987D01*
X019745Y006942D01*
X019764Y006895D01*
X019779Y006847D01*
X019791Y006798D01*
X019799Y006748D01*
X019803Y006698D01*
X019803Y006648D01*
X019799Y006598D01*
X019791Y006548D01*
X019779Y006499D01*
X019764Y006451D01*
X019745Y006404D01*
X019722Y006359D01*
X019696Y006316D01*
X019667Y006275D01*
X019634Y006236D01*
X019599Y006200D01*
X019561Y006167D01*
X019521Y006137D01*
X019478Y006110D01*
X019433Y006087D01*
X019387Y006067D01*
X019339Y006050D01*
X019291Y006038D01*
X019241Y006029D01*
X019191Y006024D01*
X019140Y006023D01*
X019090Y006026D01*
X019040Y006033D01*
X018991Y006044D01*
X018943Y006058D01*
X018896Y006076D01*
X018850Y006098D01*
X018806Y006123D01*
X018765Y006152D01*
X018726Y006183D01*
X018689Y006218D01*
X018655Y006255D01*
X018624Y006295D01*
X018596Y006337D01*
X018572Y006381D01*
X018551Y006427D01*
X018534Y006475D01*
X018521Y006523D01*
X018511Y006573D01*
X018505Y006623D01*
X018503Y006673D01*
X017253Y011798D02*
X017255Y011848D01*
X017261Y011898D01*
X017271Y011948D01*
X017284Y011996D01*
X017301Y012044D01*
X017322Y012090D01*
X017346Y012134D01*
X017374Y012176D01*
X017405Y012216D01*
X017439Y012253D01*
X017476Y012288D01*
X017515Y012319D01*
X017556Y012348D01*
X017600Y012373D01*
X017646Y012395D01*
X017693Y012413D01*
X017741Y012427D01*
X017790Y012438D01*
X017840Y012445D01*
X017890Y012448D01*
X017941Y012447D01*
X017991Y012442D01*
X018041Y012433D01*
X018089Y012421D01*
X018137Y012404D01*
X018183Y012384D01*
X018228Y012361D01*
X018271Y012334D01*
X018311Y012304D01*
X018349Y012271D01*
X018384Y012235D01*
X018417Y012196D01*
X018446Y012155D01*
X018472Y012112D01*
X018495Y012067D01*
X018514Y012020D01*
X018529Y011972D01*
X018541Y011923D01*
X018549Y011873D01*
X018553Y011823D01*
X018553Y011773D01*
X018549Y011723D01*
X018541Y011673D01*
X018529Y011624D01*
X018514Y011576D01*
X018495Y011529D01*
X018472Y011484D01*
X018446Y011441D01*
X018417Y011400D01*
X018384Y011361D01*
X018349Y011325D01*
X018311Y011292D01*
X018271Y011262D01*
X018228Y011235D01*
X018183Y011212D01*
X018137Y011192D01*
X018089Y011175D01*
X018041Y011163D01*
X017991Y011154D01*
X017941Y011149D01*
X017890Y011148D01*
X017840Y011151D01*
X017790Y011158D01*
X017741Y011169D01*
X017693Y011183D01*
X017646Y011201D01*
X017600Y011223D01*
X017556Y011248D01*
X017515Y011277D01*
X017476Y011308D01*
X017439Y011343D01*
X017405Y011380D01*
X017374Y011420D01*
X017346Y011462D01*
X017322Y011506D01*
X017301Y011552D01*
X017284Y011600D01*
X017271Y011648D01*
X017261Y011698D01*
X017255Y011748D01*
X017253Y011798D01*
X001628Y002860D02*
X001630Y002910D01*
X001636Y002960D01*
X001646Y003010D01*
X001659Y003058D01*
X001676Y003106D01*
X001697Y003152D01*
X001721Y003196D01*
X001749Y003238D01*
X001780Y003278D01*
X001814Y003315D01*
X001851Y003350D01*
X001890Y003381D01*
X001931Y003410D01*
X001975Y003435D01*
X002021Y003457D01*
X002068Y003475D01*
X002116Y003489D01*
X002165Y003500D01*
X002215Y003507D01*
X002265Y003510D01*
X002316Y003509D01*
X002366Y003504D01*
X002416Y003495D01*
X002464Y003483D01*
X002512Y003466D01*
X002558Y003446D01*
X002603Y003423D01*
X002646Y003396D01*
X002686Y003366D01*
X002724Y003333D01*
X002759Y003297D01*
X002792Y003258D01*
X002821Y003217D01*
X002847Y003174D01*
X002870Y003129D01*
X002889Y003082D01*
X002904Y003034D01*
X002916Y002985D01*
X002924Y002935D01*
X002928Y002885D01*
X002928Y002835D01*
X002924Y002785D01*
X002916Y002735D01*
X002904Y002686D01*
X002889Y002638D01*
X002870Y002591D01*
X002847Y002546D01*
X002821Y002503D01*
X002792Y002462D01*
X002759Y002423D01*
X002724Y002387D01*
X002686Y002354D01*
X002646Y002324D01*
X002603Y002297D01*
X002558Y002274D01*
X002512Y002254D01*
X002464Y002237D01*
X002416Y002225D01*
X002366Y002216D01*
X002316Y002211D01*
X002265Y002210D01*
X002215Y002213D01*
X002165Y002220D01*
X002116Y002231D01*
X002068Y002245D01*
X002021Y002263D01*
X001975Y002285D01*
X001931Y002310D01*
X001890Y002339D01*
X001851Y002370D01*
X001814Y002405D01*
X001780Y002442D01*
X001749Y002482D01*
X001721Y002524D01*
X001697Y002568D01*
X001676Y002614D01*
X001659Y002662D01*
X001646Y002710D01*
X001636Y002760D01*
X001630Y002810D01*
X001628Y002860D01*
D28*
X016653Y012735D03*
D29*
X015653Y012735D03*
X016631Y009214D03*
D30*
X015736Y008466D02*
X015673Y008403D01*
X015673Y008611D01*
X015820Y008758D01*
X016028Y008758D01*
X016175Y008611D01*
X016175Y008403D01*
X016028Y008256D01*
X015820Y008256D01*
X015673Y008403D01*
X015768Y008442D01*
X015768Y008572D01*
X015859Y008663D01*
X015989Y008663D01*
X016080Y008572D01*
X016080Y008442D01*
X015989Y008351D01*
X015859Y008351D01*
X015768Y008442D01*
X015862Y008481D01*
X015862Y008533D01*
X015898Y008569D01*
X015950Y008569D01*
X015986Y008533D01*
X015986Y008481D01*
X015950Y008445D01*
X015898Y008445D01*
X015862Y008481D01*
D31*
X017528Y010110D03*
X016715Y011048D03*
X014403Y011360D03*
X014403Y010235D03*
X013528Y008985D03*
X014403Y012485D03*
X019340Y003798D03*
X019215Y002173D03*
X014965Y001923D03*
D32*
X014678Y001623D02*
X012965Y001623D01*
X012965Y001515D02*
X012965Y002356D01*
X012972Y002316D01*
X012994Y002248D01*
X013026Y002184D01*
X013068Y002127D01*
X013119Y002076D01*
X013177Y002034D01*
X013241Y002001D01*
X013309Y001979D01*
X013380Y001968D01*
X013670Y001968D01*
X013670Y002378D01*
X013760Y002378D01*
X013760Y001968D01*
X014051Y001968D01*
X014122Y001979D01*
X014190Y002001D01*
X014254Y002034D01*
X014312Y002076D01*
X014362Y002127D01*
X014405Y002184D01*
X014437Y002248D01*
X014459Y002316D01*
X014469Y002378D01*
X013760Y002378D01*
X013760Y002468D01*
X013670Y002468D01*
X013670Y002878D01*
X013380Y002878D01*
X013309Y002867D01*
X013241Y002845D01*
X013177Y002812D01*
X013119Y002770D01*
X013068Y002719D01*
X013026Y002661D01*
X012994Y002598D01*
X012972Y002529D01*
X012965Y002490D01*
X012965Y006194D01*
X013186Y005974D01*
X013489Y005848D01*
X013817Y005848D01*
X014120Y005974D01*
X014120Y005974D01*
X014352Y006206D01*
X014478Y006509D01*
X014478Y006837D01*
X014352Y007140D01*
X014352Y007140D01*
X014120Y007372D01*
X013998Y007423D01*
X018808Y007423D01*
X018686Y007372D01*
X018453Y007140D01*
X018328Y006837D01*
X018328Y006509D01*
X018453Y006206D01*
X018453Y006206D01*
X018686Y005974D01*
X018989Y005848D01*
X019317Y005848D01*
X019620Y005974D01*
X019620Y005974D01*
X019852Y006206D01*
X019870Y006249D01*
X019870Y001515D01*
X015145Y001515D01*
X015380Y001751D01*
X015380Y002095D01*
X015137Y002338D01*
X014793Y002338D01*
X014550Y002095D01*
X014550Y001751D01*
X014786Y001515D01*
X012965Y001515D01*
X012965Y001732D02*
X014569Y001732D01*
X014550Y001840D02*
X012965Y001840D01*
X012965Y001949D02*
X014550Y001949D01*
X014550Y002057D02*
X014286Y002057D01*
X014391Y002166D02*
X014621Y002166D01*
X014730Y002274D02*
X014446Y002274D01*
X014469Y002468D02*
X014459Y002529D01*
X014437Y002598D01*
X014405Y002661D01*
X014362Y002719D01*
X014312Y002770D01*
X014254Y002812D01*
X014190Y002845D01*
X014122Y002867D01*
X014051Y002878D01*
X013760Y002878D01*
X013760Y002468D01*
X014469Y002468D01*
X014465Y002491D02*
X018890Y002491D01*
X018782Y002383D02*
X013760Y002383D01*
X013760Y002491D02*
X013670Y002491D01*
X013670Y002600D02*
X013760Y002600D01*
X013760Y002708D02*
X013670Y002708D01*
X013670Y002817D02*
X013760Y002817D01*
X014098Y003008D02*
X013333Y003008D01*
X013180Y003071D01*
X013064Y003188D01*
X013000Y003340D01*
X013000Y003506D01*
X013064Y003658D01*
X013180Y003775D01*
X013333Y003838D01*
X014098Y003838D01*
X014250Y003775D01*
X014367Y003658D01*
X014430Y003506D01*
X014430Y003340D01*
X014367Y003188D01*
X014250Y003071D01*
X014098Y003008D01*
X014161Y003034D02*
X019870Y003034D01*
X019870Y003142D02*
X014322Y003142D01*
X014393Y003251D02*
X019870Y003251D01*
X019870Y003359D02*
X014430Y003359D01*
X014430Y003468D02*
X019083Y003468D01*
X019168Y003383D02*
X018925Y003626D01*
X018925Y003970D01*
X019168Y004213D01*
X019512Y004213D01*
X019755Y003970D01*
X019755Y003626D01*
X019512Y003383D01*
X019168Y003383D01*
X018975Y003576D02*
X014401Y003576D01*
X014340Y003685D02*
X018925Y003685D01*
X018925Y003793D02*
X014205Y003793D01*
X014378Y004293D02*
X014516Y004235D01*
X014665Y004235D01*
X014803Y004293D01*
X014908Y004398D01*
X014965Y004536D01*
X014965Y004685D01*
X014908Y004823D01*
X014803Y004928D01*
X014665Y004985D01*
X014516Y004985D01*
X014378Y004928D01*
X014272Y004823D01*
X014215Y004685D01*
X014215Y004536D01*
X014272Y004398D01*
X014378Y004293D01*
X014335Y004336D02*
X012965Y004336D01*
X012965Y004444D02*
X014253Y004444D01*
X014215Y004553D02*
X012965Y004553D01*
X012965Y004661D02*
X014215Y004661D01*
X014251Y004770D02*
X012965Y004770D01*
X012965Y004878D02*
X014328Y004878D01*
X014418Y005195D02*
X014175Y005439D01*
X014175Y005585D01*
X014565Y005585D01*
X014565Y005635D01*
X014175Y005635D01*
X014175Y005782D01*
X014418Y006025D01*
X014565Y006025D01*
X014565Y005635D01*
X014615Y005635D01*
X015005Y005635D01*
X015005Y005782D01*
X014762Y006025D01*
X014615Y006025D01*
X014615Y005635D01*
X014615Y005585D01*
X014615Y005195D01*
X014762Y005195D01*
X015005Y005439D01*
X015005Y005585D01*
X014615Y005585D01*
X014565Y005585D01*
X014565Y005195D01*
X014418Y005195D01*
X014410Y005204D02*
X012965Y005204D01*
X012965Y005312D02*
X014301Y005312D01*
X014193Y005421D02*
X012965Y005421D01*
X012965Y005529D02*
X014175Y005529D01*
X014175Y005638D02*
X012965Y005638D01*
X012965Y005746D02*
X014175Y005746D01*
X014248Y005855D02*
X013834Y005855D01*
X014096Y005963D02*
X014357Y005963D01*
X014219Y006072D02*
X016004Y006072D01*
X016010Y006061D02*
X016039Y006032D01*
X016074Y006011D01*
X016114Y006001D01*
X016473Y006001D01*
X016473Y006396D01*
X016583Y006396D01*
X016583Y006506D01*
X017077Y006506D01*
X017077Y006767D01*
X017066Y006806D01*
X017046Y006841D01*
X017017Y006870D01*
X016981Y006891D01*
X016942Y006901D01*
X016583Y006901D01*
X016583Y006506D01*
X018329Y006506D01*
X018328Y006614D02*
X017077Y006614D01*
X017077Y006723D02*
X018328Y006723D01*
X018328Y006831D02*
X017051Y006831D01*
X016583Y006831D02*
X016473Y006831D01*
X016473Y006901D02*
X016114Y006901D01*
X016074Y006891D01*
X016039Y006870D01*
X016010Y006841D01*
X015990Y006806D01*
X015979Y006767D01*
X015979Y006506D01*
X016473Y006506D01*
X016473Y006901D01*
X016473Y006723D02*
X016583Y006723D01*
X016583Y006614D02*
X016473Y006614D01*
X016473Y006506D02*
X016583Y006506D01*
X016583Y006397D02*
X018374Y006397D01*
X018419Y006289D02*
X017077Y006289D01*
X017077Y006396D02*
X017077Y006135D01*
X017066Y006096D01*
X017046Y006061D01*
X017017Y006032D01*
X016981Y006011D01*
X016942Y006001D01*
X016583Y006001D01*
X016583Y006396D01*
X017077Y006396D01*
X017077Y006180D02*
X018479Y006180D01*
X018587Y006072D02*
X017052Y006072D01*
X016583Y006072D02*
X016473Y006072D01*
X016473Y006180D02*
X016583Y006180D01*
X016583Y006289D02*
X016473Y006289D01*
X016473Y006396D02*
X015979Y006396D01*
X015979Y006135D01*
X015990Y006096D01*
X016010Y006061D01*
X015979Y006180D02*
X014327Y006180D01*
X014352Y006206D02*
X014352Y006206D01*
X014387Y006289D02*
X015979Y006289D01*
X015979Y006614D02*
X014478Y006614D01*
X014477Y006506D02*
X016473Y006506D01*
X016473Y006396D01*
X016473Y006397D02*
X014432Y006397D01*
X014478Y006723D02*
X015979Y006723D01*
X016004Y006831D02*
X014478Y006831D01*
X014435Y006940D02*
X018371Y006940D01*
X018415Y007048D02*
X014390Y007048D01*
X014336Y007157D02*
X018470Y007157D01*
X018453Y007140D02*
X018453Y007140D01*
X018579Y007265D02*
X014227Y007265D01*
X014120Y007372D02*
X014120Y007372D01*
X014116Y007374D02*
X018689Y007374D01*
X018686Y007372D02*
X018686Y007372D01*
X019852Y006206D02*
X019852Y006206D01*
X019870Y006180D02*
X019827Y006180D01*
X019870Y006072D02*
X019719Y006072D01*
X019596Y005963D02*
X019870Y005963D01*
X019870Y005855D02*
X019334Y005855D01*
X018972Y005855D02*
X014933Y005855D01*
X015005Y005746D02*
X019870Y005746D01*
X019870Y005638D02*
X017011Y005638D01*
X017037Y005613D02*
X016969Y005680D01*
X016087Y005680D01*
X016019Y005613D01*
X016019Y004927D01*
X016087Y004860D01*
X016177Y004860D01*
X016176Y004859D01*
X016176Y004556D01*
X016390Y004342D01*
X016692Y004342D01*
X016906Y004556D01*
X016906Y004859D01*
X016905Y004860D01*
X016969Y004860D01*
X017037Y004927D01*
X017037Y005613D01*
X017037Y005529D02*
X019870Y005529D01*
X019870Y005421D02*
X017037Y005421D01*
X017037Y005312D02*
X019870Y005312D01*
X019870Y005204D02*
X018896Y005204D01*
X018887Y005213D02*
X018740Y005213D01*
X018740Y004823D01*
X018690Y004823D01*
X018690Y004773D01*
X018300Y004773D01*
X018300Y004626D01*
X018543Y004383D01*
X018690Y004383D01*
X018690Y004773D01*
X018740Y004773D01*
X018740Y004383D01*
X018887Y004383D01*
X019130Y004626D01*
X019130Y004773D01*
X018740Y004773D01*
X018740Y004823D01*
X019130Y004823D01*
X019130Y004970D01*
X018887Y005213D01*
X018740Y005204D02*
X018690Y005204D01*
X018690Y005213D02*
X018543Y005213D01*
X018300Y004970D01*
X018300Y004823D01*
X018690Y004823D01*
X018690Y005213D01*
X018690Y005095D02*
X018740Y005095D01*
X018740Y004987D02*
X018690Y004987D01*
X018690Y004878D02*
X018740Y004878D01*
X018740Y004770D02*
X018690Y004770D01*
X018690Y004661D02*
X018740Y004661D01*
X018740Y004553D02*
X018690Y004553D01*
X018690Y004444D02*
X018740Y004444D01*
X018949Y004444D02*
X019870Y004444D01*
X019870Y004336D02*
X014846Y004336D01*
X014928Y004444D02*
X016288Y004444D01*
X016179Y004553D02*
X014965Y004553D01*
X014965Y004661D02*
X016176Y004661D01*
X016176Y004770D02*
X014930Y004770D01*
X014853Y004878D02*
X016068Y004878D01*
X016019Y004987D02*
X012965Y004987D01*
X012965Y005095D02*
X016019Y005095D01*
X016019Y005204D02*
X014771Y005204D01*
X014879Y005312D02*
X016019Y005312D01*
X016019Y005421D02*
X014988Y005421D01*
X015005Y005529D02*
X016019Y005529D01*
X016044Y005638D02*
X015005Y005638D01*
X014824Y005963D02*
X018710Y005963D01*
X018686Y005974D02*
X018686Y005974D01*
X018535Y005204D02*
X017037Y005204D01*
X017037Y005095D02*
X017483Y005095D01*
X017503Y005116D02*
X017397Y005010D01*
X017340Y004873D01*
X017340Y004723D01*
X017397Y004586D01*
X017503Y004480D01*
X017641Y004423D01*
X017790Y004423D01*
X017928Y004480D01*
X018033Y004586D01*
X018090Y004723D01*
X018090Y004873D01*
X018033Y005010D01*
X017928Y005116D01*
X017790Y005173D01*
X017641Y005173D01*
X017503Y005116D01*
X017388Y004987D02*
X017037Y004987D01*
X016988Y004878D02*
X017343Y004878D01*
X017340Y004770D02*
X016906Y004770D01*
X016906Y004661D02*
X017366Y004661D01*
X017430Y004553D02*
X016903Y004553D01*
X016794Y004444D02*
X017589Y004444D01*
X017842Y004444D02*
X018482Y004444D01*
X018373Y004553D02*
X018001Y004553D01*
X018065Y004661D02*
X018300Y004661D01*
X018300Y004770D02*
X018090Y004770D01*
X018088Y004878D02*
X018300Y004878D01*
X018318Y004987D02*
X018043Y004987D01*
X017948Y005095D02*
X018426Y005095D01*
X019005Y005095D02*
X019870Y005095D01*
X019870Y004987D02*
X019113Y004987D01*
X019130Y004878D02*
X019870Y004878D01*
X019870Y004770D02*
X019130Y004770D01*
X019130Y004661D02*
X019870Y004661D01*
X019870Y004553D02*
X019057Y004553D01*
X019074Y004119D02*
X012965Y004119D01*
X012965Y004227D02*
X019870Y004227D01*
X019870Y004119D02*
X019606Y004119D01*
X019715Y004010D02*
X019870Y004010D01*
X019870Y003902D02*
X019755Y003902D01*
X019755Y003793D02*
X019870Y003793D01*
X019870Y003685D02*
X019755Y003685D01*
X019706Y003576D02*
X019870Y003576D01*
X019870Y003468D02*
X019597Y003468D01*
X019870Y002925D02*
X012965Y002925D01*
X012965Y002817D02*
X013186Y002817D01*
X013060Y002708D02*
X012965Y002708D01*
X012965Y002600D02*
X012995Y002600D01*
X012966Y002491D02*
X012965Y002491D01*
X012965Y002274D02*
X012985Y002274D01*
X012965Y002166D02*
X013040Y002166D01*
X012965Y002057D02*
X013144Y002057D01*
X013670Y002057D02*
X013760Y002057D01*
X013760Y002166D02*
X013670Y002166D01*
X013670Y002274D02*
X013760Y002274D01*
X014244Y002817D02*
X019870Y002817D01*
X019870Y002708D02*
X014370Y002708D01*
X014436Y002600D02*
X018999Y002600D01*
X019027Y002628D02*
X018760Y002361D01*
X018760Y002218D01*
X019170Y002218D01*
X019170Y002128D01*
X018760Y002128D01*
X018760Y001984D01*
X019027Y001718D01*
X019170Y001718D01*
X019170Y002128D01*
X019260Y002128D01*
X019260Y001718D01*
X019404Y001718D01*
X019670Y001984D01*
X019670Y002128D01*
X019260Y002128D01*
X019260Y002218D01*
X019170Y002218D01*
X019170Y002628D01*
X019027Y002628D01*
X019170Y002600D02*
X019260Y002600D01*
X019260Y002628D02*
X019404Y002628D01*
X019670Y002361D01*
X019670Y002218D01*
X019260Y002218D01*
X019260Y002628D01*
X019260Y002491D02*
X019170Y002491D01*
X019170Y002383D02*
X019260Y002383D01*
X019260Y002274D02*
X019170Y002274D01*
X019170Y002166D02*
X015309Y002166D01*
X015380Y002057D02*
X018760Y002057D01*
X018796Y001949D02*
X015380Y001949D01*
X015380Y001840D02*
X018904Y001840D01*
X019013Y001732D02*
X015361Y001732D01*
X015253Y001623D02*
X019870Y001623D01*
X019870Y001732D02*
X019418Y001732D01*
X019526Y001840D02*
X019870Y001840D01*
X019870Y001949D02*
X019635Y001949D01*
X019670Y002057D02*
X019870Y002057D01*
X019870Y002166D02*
X019260Y002166D01*
X019260Y002057D02*
X019170Y002057D01*
X019170Y001949D02*
X019260Y001949D01*
X019260Y001840D02*
X019170Y001840D01*
X019170Y001732D02*
X019260Y001732D01*
X019670Y002274D02*
X019870Y002274D01*
X019870Y002383D02*
X019649Y002383D01*
X019540Y002491D02*
X019870Y002491D01*
X019870Y002600D02*
X019432Y002600D01*
X018760Y002274D02*
X015201Y002274D01*
X013270Y003034D02*
X012965Y003034D01*
X012965Y003142D02*
X013109Y003142D01*
X013037Y003251D02*
X012965Y003251D01*
X012965Y003359D02*
X013000Y003359D01*
X013000Y003468D02*
X012965Y003468D01*
X012965Y003576D02*
X013030Y003576D01*
X013090Y003685D02*
X012965Y003685D01*
X012965Y003793D02*
X013225Y003793D01*
X012965Y003902D02*
X018925Y003902D01*
X018966Y004010D02*
X012965Y004010D01*
X014565Y005204D02*
X014615Y005204D01*
X014615Y005312D02*
X014565Y005312D01*
X014565Y005421D02*
X014615Y005421D01*
X014615Y005529D02*
X014565Y005529D01*
X014565Y005638D02*
X014615Y005638D01*
X014615Y005746D02*
X014565Y005746D01*
X014565Y005855D02*
X014615Y005855D01*
X014615Y005963D02*
X014565Y005963D01*
X013472Y005855D02*
X012965Y005855D01*
X012965Y005963D02*
X013210Y005963D01*
X013186Y005974D02*
X013186Y005974D01*
X013087Y006072D02*
X012965Y006072D01*
X012965Y006180D02*
X012979Y006180D01*
X007277Y004729D02*
X007034Y004729D01*
X006903Y004598D01*
X006903Y004223D01*
X006653Y003973D01*
X005210Y003973D01*
X005091Y004092D01*
D33*
X005091Y004604D02*
X005091Y004659D01*
X004903Y004848D01*
X004903Y006060D01*
X005240Y006398D01*
X005240Y008273D01*
X005815Y008848D01*
X006653Y008848D01*
X006528Y008810D02*
X006315Y008598D01*
X006528Y008810D02*
X006528Y011848D01*
X007028Y012348D01*
X007028Y013442D01*
X006590Y013442D01*
X006360Y013673D01*
X004571Y013673D01*
X004465Y013567D01*
X004465Y012878D02*
X004465Y012045D01*
X005075Y011436D01*
X005215Y011436D01*
X005153Y010723D01*
X005075Y011395D02*
X005075Y011436D01*
X006090Y010285D02*
X006090Y009123D01*
X005815Y008848D01*
X005903Y008798D02*
X006340Y008360D01*
X006340Y006535D01*
X006278Y006473D01*
X007028Y006848D02*
X007028Y008348D01*
X005815Y008348D01*
X004840Y008348D01*
X004090Y007598D01*
X002654Y008848D02*
X001778Y008848D01*
X002028Y007973D02*
X002028Y007723D01*
X001778Y009848D02*
X002654Y009848D01*
X005990Y013010D02*
X006153Y012848D01*
X006496Y012848D01*
X006590Y012753D01*
X005990Y013010D02*
X005981Y013010D01*
X007028Y013442D02*
X007711Y013442D01*
X007715Y013439D01*
X007875Y013598D01*
X007965Y013598D01*
X008090Y013723D01*
X009960Y013723D01*
X010245Y013438D01*
X010245Y013473D01*
X011090Y013473D01*
X011875Y013473D01*
X011965Y013564D01*
X011965Y012382D02*
X012465Y011882D01*
X012465Y003973D01*
X012090Y003973D01*
X011944Y004119D01*
X012465Y003973D02*
X012465Y002535D01*
X011812Y001882D01*
X011590Y001882D01*
X011590Y001825D01*
X009855Y001825D01*
X010715Y002348D02*
X010340Y002723D01*
X008028Y002723D01*
X008028Y003598D01*
X008953Y004523D01*
X009125Y004523D01*
X008528Y004723D02*
X008528Y005743D01*
X008444Y005827D01*
X008444Y006580D01*
X008258Y006766D01*
X007423Y005930D02*
X007423Y004875D01*
X007277Y004729D01*
X007346Y004729D01*
X007737Y005119D01*
X008528Y004723D02*
X008022Y004217D01*
X007277Y004217D01*
X006529Y004473D02*
X006529Y005409D01*
X006465Y005473D01*
X005839Y004786D02*
X005465Y005160D01*
X005465Y005473D01*
X005839Y004786D02*
X005839Y004348D01*
X006981Y002723D02*
X008028Y002723D01*
X009855Y003621D02*
X010443Y003621D01*
X010465Y003643D01*
X010465Y004360D01*
X010306Y004520D01*
X010306Y004523D01*
X010933Y004523D01*
X011237Y004827D01*
X010340Y004485D02*
X010340Y005223D01*
X010090Y005473D01*
X007215Y008348D01*
X007200Y008348D01*
X007200Y010248D01*
X007200Y010470D01*
X007278Y010548D01*
X007278Y010785D01*
X007590Y011098D01*
X008590Y011098D02*
X008590Y010248D01*
X008381Y010248D01*
X007200Y010248D02*
X007200Y010298D01*
X008090Y011973D02*
X007965Y012098D01*
X007875Y012098D01*
X007715Y012257D01*
X008090Y011973D02*
X009960Y011973D01*
X010245Y012258D01*
X010875Y012258D01*
X011090Y012473D01*
X009220Y012973D02*
X009095Y012848D01*
X007200Y008348D02*
X007028Y008348D01*
X010443Y003621D02*
X010715Y003348D01*
X011306Y003348D01*
X011590Y003064D01*
X016541Y004707D02*
X016541Y005270D01*
X016528Y005270D01*
D34*
X016541Y004707D03*
X016153Y003110D03*
X007028Y006848D03*
X006278Y006473D03*
X005240Y006398D03*
X004090Y007598D03*
X003965Y008848D03*
X002028Y007723D03*
X004465Y010348D03*
X005153Y010723D03*
X005715Y010723D03*
X006090Y010285D03*
D35*
X009220Y012973D02*
X011375Y012973D01*
X011965Y012382D01*
X013028Y012393D02*
X013863Y012393D01*
X013863Y012262D02*
X014179Y011945D01*
X014627Y011945D01*
X014943Y012262D01*
X014943Y012709D01*
X014627Y013025D01*
X014179Y013025D01*
X013863Y012709D01*
X013863Y012262D01*
X013890Y012234D02*
X013028Y012234D01*
X013028Y012076D02*
X014049Y012076D01*
X014179Y011900D02*
X013863Y011584D01*
X013863Y011137D01*
X014179Y010820D01*
X014627Y010820D01*
X014943Y011137D01*
X014943Y011584D01*
X014627Y011900D01*
X014179Y011900D01*
X014038Y011759D02*
X013028Y011759D01*
X013028Y011917D02*
X016898Y011917D01*
X016877Y011798D02*
X016877Y011798D01*
X016939Y012149D01*
X016939Y012149D01*
X017117Y012457D01*
X017117Y012457D01*
X017117Y012457D01*
X017390Y012686D01*
X017390Y012686D01*
X017725Y012808D01*
X018081Y012808D01*
X018416Y012686D01*
X018416Y012686D01*
X018689Y012457D01*
X018689Y012457D01*
X018778Y012302D01*
X018778Y013795D01*
X013028Y013795D01*
X013028Y009249D01*
X013304Y009525D01*
X013752Y009525D01*
X014068Y009209D01*
X014068Y008762D01*
X013752Y008445D01*
X013304Y008445D01*
X013028Y008722D01*
X013028Y007735D01*
X018778Y007735D01*
X018778Y011293D01*
X018689Y011139D01*
X018689Y011139D01*
X018689Y011139D01*
X018416Y010910D01*
X018416Y010910D01*
X018081Y010788D01*
X017725Y010788D01*
X017390Y010910D01*
X017390Y010910D01*
X017117Y011139D01*
X017117Y011139D01*
X016939Y011447D01*
X016939Y011447D01*
X016877Y011798D01*
X016884Y011759D02*
X014768Y011759D01*
X014927Y011600D02*
X016912Y011600D01*
X016942Y011442D02*
X014943Y011442D01*
X014943Y011283D02*
X017034Y011283D01*
X017134Y011125D02*
X014931Y011125D01*
X014773Y010966D02*
X017323Y010966D01*
X017304Y010650D02*
X016988Y010334D01*
X016988Y009887D01*
X017304Y009570D01*
X017752Y009570D01*
X018068Y009887D01*
X018068Y010334D01*
X017752Y010650D01*
X017304Y010650D01*
X017303Y010649D02*
X014753Y010649D01*
X014627Y010775D02*
X014179Y010775D01*
X013863Y010459D01*
X013863Y010012D01*
X014179Y009695D01*
X014627Y009695D01*
X014943Y010012D01*
X014943Y010459D01*
X014627Y010775D01*
X014911Y010491D02*
X017145Y010491D01*
X016988Y010332D02*
X014943Y010332D01*
X014943Y010174D02*
X016988Y010174D01*
X016988Y010015D02*
X014943Y010015D01*
X014788Y009857D02*
X017018Y009857D01*
X016946Y009685D02*
X016742Y009769D01*
X016521Y009769D01*
X016317Y009685D01*
X016161Y009528D01*
X016076Y009324D01*
X016076Y009104D01*
X016161Y008900D01*
X016317Y008743D01*
X016521Y008659D01*
X016742Y008659D01*
X016946Y008743D01*
X017102Y008900D01*
X017186Y009104D01*
X017186Y009324D01*
X017102Y009528D01*
X016946Y009685D01*
X016912Y009698D02*
X017176Y009698D01*
X017090Y009540D02*
X018778Y009540D01*
X018778Y009698D02*
X017880Y009698D01*
X018038Y009857D02*
X018778Y009857D01*
X018778Y010015D02*
X018068Y010015D01*
X018068Y010174D02*
X018778Y010174D01*
X018778Y010332D02*
X018068Y010332D01*
X017911Y010491D02*
X018778Y010491D01*
X018778Y010649D02*
X017753Y010649D01*
X017670Y010808D02*
X013028Y010808D01*
X013028Y010966D02*
X014033Y010966D01*
X013875Y011125D02*
X013028Y011125D01*
X013028Y011283D02*
X013863Y011283D01*
X013863Y011442D02*
X013028Y011442D01*
X013028Y011600D02*
X013879Y011600D01*
X014757Y012076D02*
X016926Y012076D01*
X016989Y012234D02*
X015894Y012234D01*
X015967Y012265D02*
X015763Y012180D01*
X015542Y012180D01*
X015339Y012265D01*
X015182Y012421D01*
X015098Y012625D01*
X015098Y012846D01*
X015182Y013050D01*
X015339Y013206D01*
X015542Y013290D01*
X015763Y013290D01*
X015967Y013206D01*
X016123Y013050D01*
X016208Y012846D01*
X016208Y012625D01*
X016123Y012421D01*
X015967Y012265D01*
X016095Y012393D02*
X017080Y012393D01*
X017230Y012551D02*
X016177Y012551D01*
X016208Y012710D02*
X017456Y012710D01*
X018350Y012710D02*
X018778Y012710D01*
X018778Y012868D02*
X016199Y012868D01*
X016133Y013027D02*
X018778Y013027D01*
X018778Y013185D02*
X015988Y013185D01*
X015318Y013185D02*
X013028Y013185D01*
X013028Y013027D02*
X015173Y013027D01*
X015107Y012868D02*
X014784Y012868D01*
X014942Y012710D02*
X015098Y012710D01*
X015128Y012551D02*
X014943Y012551D01*
X014943Y012393D02*
X015210Y012393D01*
X015412Y012234D02*
X014916Y012234D01*
X014022Y012868D02*
X013028Y012868D01*
X013028Y012710D02*
X013864Y012710D01*
X013863Y012551D02*
X013028Y012551D01*
X013028Y013344D02*
X018778Y013344D01*
X018778Y013502D02*
X013028Y013502D01*
X013028Y013661D02*
X018778Y013661D01*
X018778Y012551D02*
X018576Y012551D01*
X018726Y012393D02*
X018778Y012393D01*
X018772Y011283D02*
X018778Y011283D01*
X018778Y011125D02*
X018672Y011125D01*
X018778Y010966D02*
X018483Y010966D01*
X018778Y010808D02*
X018136Y010808D01*
X016351Y009698D02*
X014630Y009698D01*
X014176Y009698D02*
X013028Y009698D01*
X013028Y009540D02*
X016173Y009540D01*
X016100Y009381D02*
X013896Y009381D01*
X014054Y009223D02*
X016076Y009223D01*
X016093Y009064D02*
X014068Y009064D01*
X014068Y008906D02*
X016158Y008906D01*
X016313Y008747D02*
X014054Y008747D01*
X013895Y008589D02*
X018778Y008589D01*
X018778Y008747D02*
X016950Y008747D01*
X017105Y008906D02*
X018778Y008906D01*
X018778Y009064D02*
X017170Y009064D01*
X017186Y009223D02*
X018778Y009223D01*
X018778Y009381D02*
X017163Y009381D01*
X018778Y008430D02*
X013028Y008430D01*
X013028Y008272D02*
X018778Y008272D01*
X018778Y008113D02*
X013028Y008113D01*
X013028Y007955D02*
X018778Y007955D01*
X018778Y007796D02*
X013028Y007796D01*
X013028Y008589D02*
X013161Y008589D01*
X013160Y009381D02*
X013028Y009381D01*
X013028Y009857D02*
X014018Y009857D01*
X013863Y010015D02*
X013028Y010015D01*
X013028Y010174D02*
X013863Y010174D01*
X013863Y010332D02*
X013028Y010332D01*
X013028Y010491D02*
X013895Y010491D01*
X014053Y010649D02*
X013028Y010649D01*
D36*
X006465Y009110D03*
X005965Y008610D03*
X005465Y008110D03*
X006465Y008110D03*
X005465Y009110D03*
M02*
