%
M48
M72
T01C0.0315
T02C0.0320
T03C0.0400
T04C0.1300
%
T01
X16541Y4707
X16153Y3110
X5240Y6398
X6278Y6473
X7028Y6848
X6465Y8110
X5965Y8610
X5465Y8110
X5465Y9110
X6465Y9110
X6090Y10285
X5715Y10723
X5153Y10723
X4465Y10348
X3965Y8848
X4090Y7598
X2028Y7723
T02
X16653Y12735
X15653Y12735
X11090Y12473
X11090Y13473
X8590Y11098
X7590Y11098
X3256Y10869
X2549Y11577
X8444Y5827
X7737Y5119
X5131Y3307
X4424Y4014
X10715Y2348
X10715Y3348
X14590Y4610
X14590Y5610
X15924Y8507
X16631Y9214
X18715Y4798
X17715Y4798
T03
X16715Y11048
X17528Y10110
X14403Y10235
X14403Y11360
X14403Y12485
X11540Y9973
X11540Y8973
X11540Y7973
X11540Y6973
X11540Y5973
X11237Y4827
X11944Y4119
X13715Y3423
X13715Y2423
X14965Y1923
X19215Y2173
X5465Y5473
X6465Y5473
X10090Y5473
X10090Y6473
X10090Y7473
X10090Y8473
X10090Y9473
X10090Y10473
X13528Y8985
X19340Y3798
X1778Y8848
X1778Y9848
T04
X17903Y11798
X19153Y6673
X13653Y6673
X2278Y2860
X1778Y12985
M30
