G75*
%MOIN*%
%OFA0B0*%
%FSLAX24Y24*%
%IPPOS*%
%LPD*%
%AMOC8*
5,1,8,0,0,1.08239X$1,22.5*
%
%ADD10R,0.0591X0.0787*%
%ADD11R,0.0354X0.0276*%
%ADD12R,0.0425X0.0413*%
%ADD13R,0.2441X0.2126*%
%ADD14R,0.0630X0.0394*%
%ADD15R,0.0551X0.0315*%
%ADD16R,0.0866X0.0709*%
%ADD17R,0.0787X0.0591*%
%ADD18R,0.0400X0.0400*%
%ADD19R,0.0512X0.0630*%
D10*
G36*
X007909Y005861D02*
X007492Y005444D01*
X006937Y005999D01*
X007354Y006416D01*
X007909Y005861D01*
G37*
G36*
X008744Y006697D02*
X008327Y006280D01*
X007772Y006835D01*
X008189Y007252D01*
X008744Y006697D01*
G37*
X009125Y004523D03*
X010306Y004523D03*
X008381Y010248D03*
X007200Y010248D03*
D11*
X005091Y004092D03*
X005091Y004604D03*
X005839Y004348D03*
X006529Y004473D03*
X007277Y004729D03*
X007277Y004217D03*
X003402Y008592D03*
X003402Y009104D03*
X003402Y009592D03*
X003402Y010104D03*
X002654Y009848D03*
X002654Y008848D03*
D12*
X006590Y012753D03*
X006590Y013442D03*
X004465Y013567D03*
X004465Y012878D03*
D13*
X006981Y002723D03*
D14*
X009855Y003621D03*
X009855Y001825D03*
D15*
X010245Y012257D03*
X010245Y012848D03*
X010245Y013439D03*
D16*
X009032Y012848D03*
D17*
X007715Y013439D03*
X007715Y012257D03*
X011965Y012382D03*
X011965Y013564D03*
X016528Y006451D03*
X016528Y005270D03*
X011590Y003064D03*
X011590Y001882D03*
D18*
X005815Y008348D03*
X005815Y008348D03*
X006315Y008598D03*
X006315Y008598D03*
X005815Y008848D03*
X005815Y008848D03*
D19*
X005981Y011436D03*
X005075Y011436D03*
X005075Y013010D03*
X005981Y013010D03*
M02*
