G75*
%MOIN*%
%OFA0B0*%
%FSLAX24Y24*%
%IPPOS*%
%LPD*%
%AMOC8*
5,1,8,0,0,1.08239X$1,22.5*
%
%ADD10C,0.0125*%
%ADD11R,0.0631X0.0827*%
%ADD12R,0.0394X0.0316*%
%ADD13R,0.0465X0.0453*%
%ADD14R,0.2481X0.2166*%
%ADD15R,0.0670X0.0434*%
%ADD16C,0.0906*%
%ADD17R,0.0620X0.0413*%
%ADD18R,0.0827X0.0631*%
%ADD19R,0.0440X0.0440*%
%ADD20C,0.0112*%
%ADD21C,0.0560*%
%ADD22OC8,0.0560*%
%ADD23C,0.0640*%
%ADD24R,0.0552X0.0670*%
%ADD25C,0.0000*%
%ADD26C,0.1340*%
%ADD27OC8,0.0670*%
%ADD28C,0.0670*%
%ADD29C,0.0134*%
%ADD30OC8,0.0640*%
D10*
X000653Y001298D02*
X000653Y014098D01*
X020088Y014098D01*
X020088Y001298D01*
X000653Y001298D01*
D11*
G36*
X007937Y005861D02*
X007492Y005416D01*
X006909Y005999D01*
X007354Y006444D01*
X007937Y005861D01*
G37*
G36*
X008772Y006697D02*
X008327Y006252D01*
X007744Y006835D01*
X008189Y007280D01*
X008772Y006697D01*
G37*
X009125Y004523D03*
X010306Y004523D03*
X008381Y010248D03*
X007200Y010248D03*
D12*
X003402Y010104D03*
X003402Y009592D03*
X003402Y009104D03*
X003402Y008592D03*
X002654Y008848D03*
X002654Y009848D03*
X005091Y004604D03*
X005091Y004092D03*
X005839Y004348D03*
X006529Y004473D03*
X007277Y004729D03*
X007277Y004217D03*
D13*
X006590Y012753D03*
X006590Y013442D03*
X004465Y013567D03*
X004465Y012878D03*
D14*
X006981Y002723D03*
D15*
X009855Y003621D03*
X009855Y001825D03*
D16*
X009390Y012848D02*
X008800Y012848D01*
D17*
X010248Y012848D03*
X010248Y012257D03*
X010248Y013439D03*
D18*
X011965Y013564D03*
X011965Y012382D03*
X007715Y012257D03*
X007715Y013439D03*
X016528Y006451D03*
X016528Y005270D03*
X011590Y003064D03*
X011590Y001882D03*
D19*
X005815Y008348D03*
X005815Y008348D03*
X006315Y008598D03*
X006315Y008598D03*
X005815Y008848D03*
X005815Y008848D03*
D20*
X002512Y011744D02*
X002456Y011800D01*
X002642Y011800D01*
X002772Y011670D01*
X002772Y011484D01*
X002642Y011354D01*
X002456Y011354D01*
X002326Y011484D01*
X002326Y011670D01*
X002456Y011800D01*
X002491Y011716D01*
X002607Y011716D01*
X002688Y011635D01*
X002688Y011519D01*
X002607Y011438D01*
X002491Y011438D01*
X002410Y011519D01*
X002410Y011635D01*
X002491Y011716D01*
X002526Y011632D01*
X002572Y011632D01*
X002604Y011600D01*
X002604Y011554D01*
X002572Y011522D01*
X002526Y011522D01*
X002494Y011554D01*
X002494Y011600D01*
X002526Y011632D01*
X008611Y005864D02*
X008667Y005920D01*
X008667Y005734D01*
X008537Y005604D01*
X008351Y005604D01*
X008221Y005734D01*
X008221Y005920D01*
X008351Y006050D01*
X008537Y006050D01*
X008667Y005920D01*
X008583Y005885D01*
X008583Y005769D01*
X008502Y005688D01*
X008386Y005688D01*
X008305Y005769D01*
X008305Y005885D01*
X008386Y005966D01*
X008502Y005966D01*
X008583Y005885D01*
X008499Y005850D01*
X008499Y005804D01*
X008467Y005772D01*
X008421Y005772D01*
X008389Y005804D01*
X008389Y005850D01*
X008421Y005882D01*
X008467Y005882D01*
X008499Y005850D01*
X004387Y004181D02*
X004331Y004237D01*
X004517Y004237D01*
X004647Y004107D01*
X004647Y003921D01*
X004517Y003791D01*
X004331Y003791D01*
X004201Y003921D01*
X004201Y004107D01*
X004331Y004237D01*
X004366Y004153D01*
X004482Y004153D01*
X004563Y004072D01*
X004563Y003956D01*
X004482Y003875D01*
X004366Y003875D01*
X004285Y003956D01*
X004285Y004072D01*
X004366Y004153D01*
X004401Y004069D01*
X004447Y004069D01*
X004479Y004037D01*
X004479Y003991D01*
X004447Y003959D01*
X004401Y003959D01*
X004369Y003991D01*
X004369Y004037D01*
X004401Y004069D01*
D21*
X005131Y003307D03*
X007737Y005119D03*
X010715Y002348D03*
X014590Y004610D03*
X017715Y004798D03*
X008590Y011098D03*
X011090Y012473D03*
X003256Y010869D03*
D22*
X007590Y011098D03*
X011090Y013473D03*
X014590Y005610D03*
X010715Y003348D03*
X018715Y004798D03*
D23*
X014015Y003423D02*
X013415Y003423D01*
X013415Y002423D02*
X014015Y002423D01*
X012156Y004332D02*
X011732Y003907D01*
X011025Y004614D02*
X011449Y005039D01*
X010390Y005473D02*
X009790Y005473D01*
X009790Y006473D02*
X010390Y006473D01*
X011240Y006973D02*
X011840Y006973D01*
X011840Y005973D02*
X011240Y005973D01*
X010390Y007473D02*
X009790Y007473D01*
X009790Y008473D02*
X010390Y008473D01*
X011240Y008973D02*
X011840Y008973D01*
X011840Y009973D02*
X011240Y009973D01*
X010390Y010473D02*
X009790Y010473D01*
X009790Y009473D02*
X010390Y009473D01*
X011240Y007973D02*
X011840Y007973D01*
X006465Y005773D02*
X006465Y005173D01*
X005465Y005173D02*
X005465Y005773D01*
X002078Y008848D02*
X001478Y008848D01*
X001478Y009848D02*
X002078Y009848D01*
D24*
X005075Y011436D03*
X005981Y011436D03*
X005981Y013010D03*
X005075Y013010D03*
D25*
X001128Y012985D02*
X001130Y013035D01*
X001136Y013085D01*
X001146Y013135D01*
X001159Y013183D01*
X001176Y013231D01*
X001197Y013277D01*
X001221Y013321D01*
X001249Y013363D01*
X001280Y013403D01*
X001314Y013440D01*
X001351Y013475D01*
X001390Y013506D01*
X001431Y013535D01*
X001475Y013560D01*
X001521Y013582D01*
X001568Y013600D01*
X001616Y013614D01*
X001665Y013625D01*
X001715Y013632D01*
X001765Y013635D01*
X001816Y013634D01*
X001866Y013629D01*
X001916Y013620D01*
X001964Y013608D01*
X002012Y013591D01*
X002058Y013571D01*
X002103Y013548D01*
X002146Y013521D01*
X002186Y013491D01*
X002224Y013458D01*
X002259Y013422D01*
X002292Y013383D01*
X002321Y013342D01*
X002347Y013299D01*
X002370Y013254D01*
X002389Y013207D01*
X002404Y013159D01*
X002416Y013110D01*
X002424Y013060D01*
X002428Y013010D01*
X002428Y012960D01*
X002424Y012910D01*
X002416Y012860D01*
X002404Y012811D01*
X002389Y012763D01*
X002370Y012716D01*
X002347Y012671D01*
X002321Y012628D01*
X002292Y012587D01*
X002259Y012548D01*
X002224Y012512D01*
X002186Y012479D01*
X002146Y012449D01*
X002103Y012422D01*
X002058Y012399D01*
X002012Y012379D01*
X001964Y012362D01*
X001916Y012350D01*
X001866Y012341D01*
X001816Y012336D01*
X001765Y012335D01*
X001715Y012338D01*
X001665Y012345D01*
X001616Y012356D01*
X001568Y012370D01*
X001521Y012388D01*
X001475Y012410D01*
X001431Y012435D01*
X001390Y012464D01*
X001351Y012495D01*
X001314Y012530D01*
X001280Y012567D01*
X001249Y012607D01*
X001221Y012649D01*
X001197Y012693D01*
X001176Y012739D01*
X001159Y012787D01*
X001146Y012835D01*
X001136Y012885D01*
X001130Y012935D01*
X001128Y012985D01*
X013003Y006673D02*
X013005Y006723D01*
X013011Y006773D01*
X013021Y006823D01*
X013034Y006871D01*
X013051Y006919D01*
X013072Y006965D01*
X013096Y007009D01*
X013124Y007051D01*
X013155Y007091D01*
X013189Y007128D01*
X013226Y007163D01*
X013265Y007194D01*
X013306Y007223D01*
X013350Y007248D01*
X013396Y007270D01*
X013443Y007288D01*
X013491Y007302D01*
X013540Y007313D01*
X013590Y007320D01*
X013640Y007323D01*
X013691Y007322D01*
X013741Y007317D01*
X013791Y007308D01*
X013839Y007296D01*
X013887Y007279D01*
X013933Y007259D01*
X013978Y007236D01*
X014021Y007209D01*
X014061Y007179D01*
X014099Y007146D01*
X014134Y007110D01*
X014167Y007071D01*
X014196Y007030D01*
X014222Y006987D01*
X014245Y006942D01*
X014264Y006895D01*
X014279Y006847D01*
X014291Y006798D01*
X014299Y006748D01*
X014303Y006698D01*
X014303Y006648D01*
X014299Y006598D01*
X014291Y006548D01*
X014279Y006499D01*
X014264Y006451D01*
X014245Y006404D01*
X014222Y006359D01*
X014196Y006316D01*
X014167Y006275D01*
X014134Y006236D01*
X014099Y006200D01*
X014061Y006167D01*
X014021Y006137D01*
X013978Y006110D01*
X013933Y006087D01*
X013887Y006067D01*
X013839Y006050D01*
X013791Y006038D01*
X013741Y006029D01*
X013691Y006024D01*
X013640Y006023D01*
X013590Y006026D01*
X013540Y006033D01*
X013491Y006044D01*
X013443Y006058D01*
X013396Y006076D01*
X013350Y006098D01*
X013306Y006123D01*
X013265Y006152D01*
X013226Y006183D01*
X013189Y006218D01*
X013155Y006255D01*
X013124Y006295D01*
X013096Y006337D01*
X013072Y006381D01*
X013051Y006427D01*
X013034Y006475D01*
X013021Y006523D01*
X013011Y006573D01*
X013005Y006623D01*
X013003Y006673D01*
X018503Y006673D02*
X018505Y006723D01*
X018511Y006773D01*
X018521Y006823D01*
X018534Y006871D01*
X018551Y006919D01*
X018572Y006965D01*
X018596Y007009D01*
X018624Y007051D01*
X018655Y007091D01*
X018689Y007128D01*
X018726Y007163D01*
X018765Y007194D01*
X018806Y007223D01*
X018850Y007248D01*
X018896Y007270D01*
X018943Y007288D01*
X018991Y007302D01*
X019040Y007313D01*
X019090Y007320D01*
X019140Y007323D01*
X019191Y007322D01*
X019241Y007317D01*
X019291Y007308D01*
X019339Y007296D01*
X019387Y007279D01*
X019433Y007259D01*
X019478Y007236D01*
X019521Y007209D01*
X019561Y007179D01*
X019599Y007146D01*
X019634Y007110D01*
X019667Y007071D01*
X019696Y007030D01*
X019722Y006987D01*
X019745Y006942D01*
X019764Y006895D01*
X019779Y006847D01*
X019791Y006798D01*
X019799Y006748D01*
X019803Y006698D01*
X019803Y006648D01*
X019799Y006598D01*
X019791Y006548D01*
X019779Y006499D01*
X019764Y006451D01*
X019745Y006404D01*
X019722Y006359D01*
X019696Y006316D01*
X019667Y006275D01*
X019634Y006236D01*
X019599Y006200D01*
X019561Y006167D01*
X019521Y006137D01*
X019478Y006110D01*
X019433Y006087D01*
X019387Y006067D01*
X019339Y006050D01*
X019291Y006038D01*
X019241Y006029D01*
X019191Y006024D01*
X019140Y006023D01*
X019090Y006026D01*
X019040Y006033D01*
X018991Y006044D01*
X018943Y006058D01*
X018896Y006076D01*
X018850Y006098D01*
X018806Y006123D01*
X018765Y006152D01*
X018726Y006183D01*
X018689Y006218D01*
X018655Y006255D01*
X018624Y006295D01*
X018596Y006337D01*
X018572Y006381D01*
X018551Y006427D01*
X018534Y006475D01*
X018521Y006523D01*
X018511Y006573D01*
X018505Y006623D01*
X018503Y006673D01*
X017253Y011798D02*
X017255Y011848D01*
X017261Y011898D01*
X017271Y011948D01*
X017284Y011996D01*
X017301Y012044D01*
X017322Y012090D01*
X017346Y012134D01*
X017374Y012176D01*
X017405Y012216D01*
X017439Y012253D01*
X017476Y012288D01*
X017515Y012319D01*
X017556Y012348D01*
X017600Y012373D01*
X017646Y012395D01*
X017693Y012413D01*
X017741Y012427D01*
X017790Y012438D01*
X017840Y012445D01*
X017890Y012448D01*
X017941Y012447D01*
X017991Y012442D01*
X018041Y012433D01*
X018089Y012421D01*
X018137Y012404D01*
X018183Y012384D01*
X018228Y012361D01*
X018271Y012334D01*
X018311Y012304D01*
X018349Y012271D01*
X018384Y012235D01*
X018417Y012196D01*
X018446Y012155D01*
X018472Y012112D01*
X018495Y012067D01*
X018514Y012020D01*
X018529Y011972D01*
X018541Y011923D01*
X018549Y011873D01*
X018553Y011823D01*
X018553Y011773D01*
X018549Y011723D01*
X018541Y011673D01*
X018529Y011624D01*
X018514Y011576D01*
X018495Y011529D01*
X018472Y011484D01*
X018446Y011441D01*
X018417Y011400D01*
X018384Y011361D01*
X018349Y011325D01*
X018311Y011292D01*
X018271Y011262D01*
X018228Y011235D01*
X018183Y011212D01*
X018137Y011192D01*
X018089Y011175D01*
X018041Y011163D01*
X017991Y011154D01*
X017941Y011149D01*
X017890Y011148D01*
X017840Y011151D01*
X017790Y011158D01*
X017741Y011169D01*
X017693Y011183D01*
X017646Y011201D01*
X017600Y011223D01*
X017556Y011248D01*
X017515Y011277D01*
X017476Y011308D01*
X017439Y011343D01*
X017405Y011380D01*
X017374Y011420D01*
X017346Y011462D01*
X017322Y011506D01*
X017301Y011552D01*
X017284Y011600D01*
X017271Y011648D01*
X017261Y011698D01*
X017255Y011748D01*
X017253Y011798D01*
X001628Y002860D02*
X001630Y002910D01*
X001636Y002960D01*
X001646Y003010D01*
X001659Y003058D01*
X001676Y003106D01*
X001697Y003152D01*
X001721Y003196D01*
X001749Y003238D01*
X001780Y003278D01*
X001814Y003315D01*
X001851Y003350D01*
X001890Y003381D01*
X001931Y003410D01*
X001975Y003435D01*
X002021Y003457D01*
X002068Y003475D01*
X002116Y003489D01*
X002165Y003500D01*
X002215Y003507D01*
X002265Y003510D01*
X002316Y003509D01*
X002366Y003504D01*
X002416Y003495D01*
X002464Y003483D01*
X002512Y003466D01*
X002558Y003446D01*
X002603Y003423D01*
X002646Y003396D01*
X002686Y003366D01*
X002724Y003333D01*
X002759Y003297D01*
X002792Y003258D01*
X002821Y003217D01*
X002847Y003174D01*
X002870Y003129D01*
X002889Y003082D01*
X002904Y003034D01*
X002916Y002985D01*
X002924Y002935D01*
X002928Y002885D01*
X002928Y002835D01*
X002924Y002785D01*
X002916Y002735D01*
X002904Y002686D01*
X002889Y002638D01*
X002870Y002591D01*
X002847Y002546D01*
X002821Y002503D01*
X002792Y002462D01*
X002759Y002423D01*
X002724Y002387D01*
X002686Y002354D01*
X002646Y002324D01*
X002603Y002297D01*
X002558Y002274D01*
X002512Y002254D01*
X002464Y002237D01*
X002416Y002225D01*
X002366Y002216D01*
X002316Y002211D01*
X002265Y002210D01*
X002215Y002213D01*
X002165Y002220D01*
X002116Y002231D01*
X002068Y002245D01*
X002021Y002263D01*
X001975Y002285D01*
X001931Y002310D01*
X001890Y002339D01*
X001851Y002370D01*
X001814Y002405D01*
X001780Y002442D01*
X001749Y002482D01*
X001721Y002524D01*
X001697Y002568D01*
X001676Y002614D01*
X001659Y002662D01*
X001646Y002710D01*
X001636Y002760D01*
X001630Y002810D01*
X001628Y002860D01*
D26*
X002278Y002860D03*
X013653Y006673D03*
X019153Y006673D03*
X017903Y011798D03*
X001778Y012985D03*
D27*
X016653Y012735D03*
D28*
X015653Y012735D03*
X016631Y009214D03*
D29*
X015724Y008463D02*
X015657Y008396D01*
X015657Y008618D01*
X015813Y008774D01*
X016035Y008774D01*
X016191Y008618D01*
X016191Y008396D01*
X016035Y008240D01*
X015813Y008240D01*
X015657Y008396D01*
X015758Y008438D01*
X015758Y008576D01*
X015855Y008673D01*
X015993Y008673D01*
X016090Y008576D01*
X016090Y008438D01*
X015993Y008341D01*
X015855Y008341D01*
X015758Y008438D01*
X015858Y008479D01*
X015858Y008535D01*
X015896Y008573D01*
X015952Y008573D01*
X015990Y008535D01*
X015990Y008479D01*
X015952Y008441D01*
X015896Y008441D01*
X015858Y008479D01*
D30*
X017528Y010110D03*
X016715Y011048D03*
X014403Y011360D03*
X014403Y010235D03*
X013528Y008985D03*
X014403Y012485D03*
X019340Y003798D03*
X019215Y002173D03*
X014965Y001923D03*
M02*
